<?xml version="1.0" encoding="utf-8"?>
<!-- Generator: Adobe Illustrator 23.0.1, SVG Export Plug-In . SVG Version: 6.00 Build 0)  -->
<svg version="1.1" id="Layer_1" xmlns="http://www.w3.org/2000/svg" xmlns:xlink="http://www.w3.org/1999/xlink" x="0px" y="0px"
	 viewBox="0 0 2125.98 2125.98" style="enable-background:new 0 0 2125.98 2125.98;" xml:space="preserve">
<style type="text/css">
	.st0{fill:#EA551E;stroke:#EA551E;stroke-width:10;stroke-linecap:round;stroke-linejoin:round;stroke-miterlimit:10;}
</style>
<g>
	<g>
		<path class="st0" d="M928.37,2069.32c-0.79-4.05-1.44-8.11-2.16-12.17c-0.69-3.86-1.64-7.66-2.45-11.49
			c-0.83-3.94-1.65-7.89-2.26-11.87c-0.59-3.84-1.16-7.67-1.72-11.51c-0.02-0.37-0.07-0.74-0.16-1.1c-0.01-0.04-0.01-0.09-0.02-0.13
			c0-0.01,0-0.01,0-0.02c-0.12-0.88-0.24-1.77-0.36-2.65c-0.23-1.73-0.46-3.46-0.7-5.19c0-0.03-0.01-0.07-0.01-0.1v0
			c0-0.01,0-0.02,0-0.03c-0.01-0.46-0.06-0.92-0.18-1.38c-0.01-0.04-0.01-0.07-0.02-0.11c-0.34-2.63-0.65-5.27-0.97-7.91
			c-0.32-2.61-0.65-5.22-0.98-7.82c-0.35-2.82-0.68-5.65-1.13-8.46c-0.59-3.64-1.17-7.27-1.76-10.91c-0.38-2.33-0.86-4.64-1.3-6.96
			c-0.52-2.74-0.96-5.52-1.57-8.24c-0.73-3.25-1.46-6.5-2.18-9.75c-1.31-5.84-2.64-11.68-3.97-17.51c-1.3-5.7-2.83-11.35-4.27-17.01
			c-1.43-5.61-3.08-11.17-4.65-16.75c-3.16-11.24-6.33-22.47-9.44-33.73c-1.53-5.55-3.07-11.1-4.61-16.65
			c-1.56-5.62-3.24-11.19-4.87-16.79c-6.49-22.26-14.17-44.14-21.71-66.06c-3.5-10.17-7.22-20.26-10.85-30.38
			c-1.85-5.16-3.67-10.34-5.6-15.48c-1.39-3.71-2.78-7.42-4.18-11.13c-0.8-2.12-1.54-4.27-2.39-6.37
			c-1.36-3.38-2.72-6.75-4.08-10.13c-1.44-3.57-2.82-7.17-4.34-10.7c-2.65-6.16-5.31-12.32-7.96-18.49
			c-2.28-5.46-4.57-10.91-6.85-16.37c-0.75-1.79-1.41-3.61-2.09-5.42c-1.38-3.62-2.76-7.24-4.14-10.86
			c-2.05-5.39-3.87-10.87-5.78-16.31c-1.82-5.17-3.57-10.37-5.36-15.56c-0.94-2.73-1.99-5.44-2.99-8.15
			c-0.84-2.29-1.65-4.58-2.58-6.83c-1.53-3.75-3.01-7.52-4.67-11.21c-1.43-3.16-2.96-6.39-5.04-9.17c-1.16-1.55-2.2-3.11-4-3.99
			c-0.49-0.21-0.98-0.42-1.48-0.62c-1.1-0.3-2.19-0.3-3.29,0c-1.33,0.27-2.67,1.01-3.65,1.98c-1.47,1.48-2.05,3.61-2.69,5.53
			c-0.23,0.7-0.43,1.41-0.65,2.11c-0.35,1.14-0.66,2.29-0.99,3.44c-0.87,3.05-1.77,6.09-2.67,9.13c-1.59,5.35-3.31,10.66-4.98,15.99
			c-1.79,5.72-3.42,11.5-5.14,17.24c-0.67,2.23-1.35,4.46-2.05,6.68c-0.91,2.89-1.76,5.81-2.73,8.68
			c-3.68,10.95-7.25,21.95-11.32,32.76c-2.13,5.66-4.28,11.3-6.47,16.93c-1.01,2.6-2.1,5.19-3.05,7.82
			c-1.06,2.96-2.12,5.92-3.18,8.89c-0.85,2.36-1.78,4.72-2.54,7.11c-1.02,3.22-2.03,6.44-3.05,9.65c-0.7,2.22-1.45,4.44-2.1,6.68
			c-0.96,3.32-1.92,6.64-2.88,9.96c-3.07,10.6-5.9,21.27-8.67,31.95c-1.37,5.28-2.79,10.54-4.02,15.85
			c-0.92,3.98-1.85,7.96-2.77,11.94c-0.44,1.88-0.91,3.77-1.31,5.66c-1.46,6.86-2.92,13.72-4.38,20.57
			c-1.1,5.17-1.98,10.38-2.94,15.58c-0.88,4.75-1.78,9.5-2.59,14.26c-1.18,6.9-2.37,13.79-3.55,20.68
			c-1.8,10.49-3.45,20.99-5.33,31.47l-2.22,12.35c-0.38,2.11-0.72,4.24-1.14,6.35c-1.29,6.5-2.59,13-3.89,19.5
			c-0.89,4.46-1.73,8.91-2.54,13.39c-0.74,4.1-1.49,8.2-2.23,12.3c-0.35,1.95-0.77,3.9-1.06,5.86c-1.01,6.67-2.02,13.33-3.02,19.99
			c-0.72,4.79-1.37,9.6-2.03,14.4c-0.72,5.27-1.39,10.55-2.19,15.81c-0.97,6.44-1.94,12.88-2.91,19.31c-0.12,0.8-0.33,1.6-0.5,2.39
			c-0.41,1.98-0.82,3.96-1.23,5.94c-0.64,3.09-1.28,6.18-1.92,9.27c-0.15,0.7-0.36,1.39-0.55,2.07c-0.54,2.01-1.07,4.03-1.6,6.04
			c-0.64,2.4-1.19,4.85-1.96,7.21c-2.24,6.86-4.54,13.7-6.71,20.57c-1.02,3.21,1.16,6.74,4.32,7.61c0.54,0.15,1.08,0.22,1.63,0.22
			c1.09,0,2.18-0.29,3.13-0.84c1.43-0.84,2.35-2.14,2.84-3.7c2.04-6.43,4.19-12.82,6.28-19.22c0.71-2.18,1.29-4.38,1.88-6.59
			c0.88-3.31,1.76-6.61,2.64-9.92c0.16-0.59,0.26-1.2,0.38-1.8c0.39-1.87,0.78-3.74,1.16-5.6c0.69-3.35,1.39-6.7,2.09-10.06
			c0.41-1.98,0.62-4.01,0.92-6c0.61-4.06,1.22-8.11,1.84-12.16c1.51-10.04,2.68-20.12,4.2-30.16c1.06-7.01,2.12-14.03,3.18-21.05
			c0.23-1.55,0.55-3.09,0.83-4.63c0.73-4.01,1.46-8.02,2.19-12.04c0.82-4.54,1.65-9.08,2.55-13.61c1.39-6.96,2.78-13.93,4.17-20.89
			c0.33-1.64,0.6-3.29,0.89-4.93c0.73-4.07,1.46-8.13,2.19-12.2c0.82-4.59,1.63-9.18,2.4-13.78c2.14-12.86,4.32-25.71,6.52-38.57
			c0.8-4.66,1.64-9.3,2.51-13.95c0.74-4.01,1.49-8.03,2.24-12.04c0.28-1.5,0.54-3.01,0.86-4.51c1.48-6.95,2.95-13.9,4.43-20.85
			c1.19-5.59,2.56-11.14,3.86-16.71c1.21-5.21,2.56-10.37,3.9-15.55c1.36-5.23,2.73-10.46,4.13-15.67
			c2.97-11.05,5.99-22.08,9.44-32.99c1.14-3.6,2.28-7.21,3.41-10.81c0.63-1.99,1.38-3.95,2.08-5.91c1.24-3.45,2.47-6.9,3.71-10.35
			c0.77-2.14,1.64-4.23,2.46-6.35c2.2-5.63,4.37-11.27,6.5-16.92c0.93-2.46,1.92-4.9,2.77-7.39l3.46-10.1
			c3.51-10.26,6.99-20.52,10.09-30.91c2.66-8.91,5.29-17.81,8.06-26.68c1.27-4.07,2.53-8.14,3.74-12.22
			c0.17-0.57,0.34-1.14,0.5-1.71c0.23,0.5,0.46,1,0.68,1.5c1.09,2.67,2.19,5.34,3.28,8.01c0.98,2.41,1.82,4.88,2.71,7.32
			c0.87,2.36,1.77,4.72,2.59,7.1c1.19,3.47,2.38,6.94,3.58,10.41c1.93,5.62,3.92,11.23,5.9,16.83c1.93,5.48,4.07,10.9,6.14,16.33
			c2.7,7.08,5.75,14.04,8.67,21.03c2.79,6.67,5.7,13.3,8.57,19.94c2.35,5.83,4.7,11.66,7.05,17.5c2.1,5.21,3.98,10.52,5.96,15.78
			c3.7,9.88,7.21,19.83,10.78,29.76c1.92,5.34,3.9,10.67,5.74,16.04c1.92,5.58,3.86,11.17,5.77,16.76c1.93,5.67,3.92,11.32,5.8,17
			c1.1,3.32,2.19,6.64,3.29,9.96c0.73,2.2,1.5,4.4,2.18,6.62c0.81,2.64,1.64,5.28,2.47,7.93c-1.2-0.12-2.4-0.2-3.63-0.21
			c-1.27-0.01-2.54-0.01-3.81-0.02c-2.8-0.02-5.59-0.04-8.39-0.07c-5-0.05-10.01-0.1-15.02-0.28c-10.62-0.38-21.24-0.98-31.86-1.06
			c-11.34-0.08-22.69-0.08-34.03-0.1c-4.77-0.01-9.54-0.01-14.3-0.09c-5.33-0.08-10.66-0.09-15.99-0.31
			c-1.69-0.07-3.37-0.14-5.06-0.21c-0.77-0.03-1.55-0.03-2.31-0.1c-2.21-0.21-4.42-0.42-6.63-0.63c-2.63-0.43-5.26-0.86-7.88-1.36
			c-0.55-0.07-1.1-0.15-1.65-0.22c-1.12,0-2.16,0.28-3.12,0.84c-1.38,0.81-2.42,2.15-2.84,3.7c-0.44,1.6-0.21,3.34,0.62,4.77
			c0.76,1.29,2.18,2.55,3.7,2.84c1.75,0.34,3.51,0.64,5.27,0.93c1.73,0.29,3.48,0.64,5.23,0.81c1.5,0.14,3,0.28,4.49,0.42
			c1.02,0.1,2.05,0.24,3.07,0.28c3.13,0.13,6.26,0.26,9.4,0.38c2.44,0.1,4.89,0.08,7.33,0.12c10.92,0.16,21.83,0.18,32.75,0.21
			c10.52,0.02,21.05-0.04,31.56,0.28c10.44,0.32,20.86,0.9,31.31,1.06c3.71,0.05,7.42,0.1,11.13,0.13c0.94,0.01,1.88,0,2.82,0
			c2.47-0.01,4.95-0.02,7.41,0.18c0.35,0.05,0.71,0.09,1.06,0.14c1.03,0,2-0.26,2.91-0.74c1.39,4.71,2.81,9.41,4.12,14.14
			c3.1,11.22,6.14,22.47,9.31,33.68c1.57,5.55,3.16,11.1,4.72,16.66c0.92,3.26,1.83,6.52,2.75,9.79c0.63,2.26,1.31,4.5,1.9,6.77
			c0.86,3.36,1.72,6.71,2.58,10.07c0.57,2.24,1.2,4.47,1.71,6.73c1.25,5.52,2.52,11.03,3.76,16.55c0.92,4.13,1.85,8.27,2.78,12.4
			c0.66,2.95,1.16,5.94,1.72,8.9c0.53,2.76,1.07,5.51,1.52,8.28c0.57,3.54,1.14,7.07,1.71,10.61c0.68,5.41,1.36,10.82,2.03,16.23
			l0.6,4.85c0.01,0.12,0.03,0.24,0.05,0.36c0.01,0.5,0.07,0.99,0.19,1.46l0.24,1.76c0.25,1.84,0.49,3.69,0.74,5.53
			c0.04,0.32,0.08,0.64,0.12,0.95c0.02,0.38,0.07,0.76,0.16,1.13c0.02,0.14,0.04,0.28,0.06,0.42c0.1,0.71,0.21,1.43,0.31,2.15
			c0.45,3.04,0.89,6.08,1.36,9.13c0.44,2.87,0.96,5.72,1.49,8.58c0.87,4.72,2.06,9.38,3.04,14.08c0.99,4.75,1.64,9.56,2.57,14.32
			c0.29,1.52,1.55,2.94,2.84,3.7c1.43,0.84,3.17,1.06,4.77,0.62c1.55-0.43,2.89-1.46,3.7-2.84c0.21-0.49,0.42-0.99,0.62-1.48
			C928.66,2071.52,928.66,2070.42,928.37,2069.32z"/>
		<path class="st0" d="M1823.24,2107.95c5.55-0.46,11.14-0.27,16.71-0.56c1.62-0.08,3.27-0.29,4.87-0.55
			c1.41-0.23,2.81-0.52,4.17-0.95c2.69-0.86,5.33-1.86,7.94-2.92c3.01-1.22,5.99-2.51,8.95-3.87c2.9-1.33,5.74-2.76,8.59-4.2
			c5.45-2.75,10.72-5.83,16.01-8.85c0.66-0.38,1.29-0.8,1.92-1.21c1.82-1.18,3.64-2.36,5.47-3.54c1.11-0.72,2.22-1.43,3.32-2.15
			c0.89-0.58,1.73-1.26,2.59-1.89c2.9-2.12,5.79-4.23,8.69-6.35c0.94-0.69,1.81-1.43,2.7-2.17c1.6-1.34,3.21-2.69,4.81-4.03
			c1.42-1.19,2.84-2.38,4.25-3.56c0.51-0.42,1.02-0.84,1.5-1.3c2.79-2.64,5.58-5.27,8.37-7.91c3.53-3.34,6.94-6.78,10.28-10.32
			c6.05-6.41,11.56-13.27,16.84-20.31c2-2.67,3.84-5.44,5.71-8.19c2.22-3.28,4.44-6.55,6.65-9.83c0.98-1.45,1.88-2.96,2.8-4.46
			c2.22-3.63,4.43-7.27,6.65-10.9c0.96-1.57,1.97-3.11,2.84-4.73c1.68-3.15,3.37-6.3,5.05-9.44c1.73-3.24,3.47-6.48,5.2-9.72
			c0.78-1.45,1.43-2.97,2.12-4.47c1.78-3.85,3.56-7.7,5.33-11.56c0.95-2.05,1.95-4.09,2.84-6.16c2.74-6.39,5.48-12.78,8.22-19.17
			c2.35-5.48,4.63-10.99,6.94-16.49c1.18-2.82,2.36-5.64,3.55-8.46c0.18-0.44,0.33-0.9,0.49-1.35c0.58-1.63,1.15-3.27,1.73-4.9
			c1.38-3.92,2.77-7.84,4.15-11.76c1.63-4.61,3-9.29,4.3-14.01c2.35-8.55,4-17.25,5.17-26.04c1.14-8.52,1.17-17.1,0.99-25.68
			c-0.19-8.86-1.01-17.66-2.24-26.43c-1.21-8.57-3.35-16.91-6.14-25.1c-2.85-8.38-6.37-16.56-10.43-24.43
			c-3.88-7.51-8.32-14.76-12.98-21.82c-4.66-7.07-9.64-13.95-14.79-20.66c-5.28-6.88-10.84-13.48-16.71-19.86
			c-2.84-3.09-5.72-6.15-8.68-9.13c-2.94-2.96-5.88-5.93-8.83-8.89c-1.98-2-3.97-4-5.95-5.99c-1.61-1.62-3.29-3.18-4.93-4.76
			c-3.04-2.93-6.08-5.86-9.11-8.79c-1.18-1.14-2.35-2.28-3.56-3.38c-4.97-4.51-9.95-9.02-14.92-13.53c-1.82-1.65-3.73-3.2-5.6-4.8
			l-9.44-8.1c-4.4-3.77-8.95-7.36-13.45-11.01c-3.29-2.67-6.61-5.28-9.99-7.84c-3.2-2.43-6.45-4.8-9.77-7.06
			c-3.71-2.53-7.55-4.86-11.4-7.15c-3.21-1.91-6.49-3.7-9.76-5.52c-2.18-1.21-4.34-2.49-6.57-3.61c-3.21-1.62-6.43-3.24-9.65-4.85
			c-0.79-0.4-1.62-0.74-2.43-1.1c-1.99-0.89-3.98-1.79-5.97-2.68c-2.11-0.95-4.25-1.82-6.4-2.67c-3.92-1.54-7.98-2.9-12.13-3.6
			c-5.17-0.87-10.43-0.75-15.63-0.17c-2.77,0.31-5.58,0.55-8.18,1.61c-1.77,0.72-3.42,1.57-4.71,3.01
			c-0.95,1.06-1.37,1.84-1.88,3.16c-0.35,0.92-0.56,1.74-0.69,2.72c-0.18,1.29-0.29,2.52-0.34,3.81c-0.03,0.7-0.01,1.41-0.01,2.11
			c0,1.37,0,2.74,0,4.11c0,11.96-0.02,23.92,0.02,35.88c0.02,5.51,0.01,11.02,0.05,16.52c0.05,6.17,0.01,12.35,0.15,18.52
			l0.48,20.93c0.04,1.61,0.14,3.22,0.21,4.82c0.21,4.22,0.41,8.44,0.62,12.66c0.61,12.44,1.09,24.88,1.6,37.32
			c0.21,5.24,0.4,10.48,0.6,15.71c0.15,4.06,0.31,8.12,0.46,12.18c0.05,1.39,0.09,2.77,0.17,4.16c0.45,7.35,0.9,14.71,1.35,22.06
			c0.26,4.27,0.5,8.54,0.83,12.8c1.85,24.02,3.7,48.05,5.34,72.09c0.55,8.13,1.11,16.25,1.66,24.38c0.28,4.13,0.46,8.25,0.65,12.38
			c0.37,7.79,0.73,15.58,1.1,23.37c0.22,4.59,0.24,9.19,0.34,13.78c0.15,6.87,0.3,13.75,0.45,20.62c0.13,5.9,0.07,11.81,0.11,17.71
			c0.08,12.48,0.06,24.97,0.05,37.45c-0.01,11-0.04,21.99-0.19,32.99c-0.08,5.99-0.11,11.98-0.39,17.97
			c-0.17,3.63-0.33,7.26-0.5,10.89c-0.04,0.81-0.17,1.63-0.26,2.43c-0.24,2.21-0.49,4.41-0.73,6.62c-0.1,0.89-0.19,1.78-0.3,2.67
			c-0.11,0.78-0.23,1.55-0.34,2.33c-0.07,0.55-0.15,1.1-0.22,1.64c0,1.12,0.28,2.16,0.84,3.12c0.81,1.38,2.15,2.42,3.7,2.84
			c1.6,0.44,3.34,0.21,4.77-0.62c0.42-0.32,0.84-0.64,1.25-0.97c0.77-0.77,1.3-1.68,1.59-2.73c0.66-4.49,1.16-8.97,1.66-13.48
			c0.14-1.21,0.27-2.43,0.4-3.64c0.12-1.11,0.1-2.26,0.15-3.38c0.18-3.82,0.35-7.65,0.53-11.47c0.1-2.1,0.08-4.22,0.11-6.32
			c0.08-5.73,0.2-11.46,0.22-17.19c0.03-7.35,0.05-14.7,0.08-22.06c0.04-10.6,0.06-21.2,0-31.81c-0.05-7.79-0.09-15.58-0.14-23.37
			c-0.03-4.75-0.19-9.5-0.29-14.24c-0.15-6.73-0.3-13.45-0.44-20.17c-0.04-1.61-0.15-3.22-0.22-4.83c-0.19-4.1-0.39-8.2-0.58-12.3
			c-0.19-4.1-0.38-8.2-0.58-12.3c-0.07-1.61-0.12-3.22-0.23-4.82c-0.46-6.68-0.91-13.37-1.37-20.05
			c-1.67-24.49-3.5-48.97-5.38-73.44c-0.94-12.21-1.64-24.43-2.39-36.65c-0.26-4.26-0.44-8.51-0.6-12.78
			c-0.28-7.37-0.56-14.74-0.84-22.11c-0.41-10.66-0.81-21.32-1.33-31.98c-0.37-7.54-0.73-15.08-1.1-22.63
			c-0.08-1.68-0.1-3.37-0.14-5.05c-0.1-4.25-0.19-8.5-0.29-12.75c-0.27-11.72-0.26-23.45-0.3-35.18
			c-0.03-11.54-0.03-23.09-0.03-34.63v-7.19c0-2.08-0.07-4.17,0.06-6.25c0.81-0.23,1.64-0.4,2.48-0.54c1.3-0.14,2.59-0.27,3.9-0.36
			c1.19-0.08,2.38-0.15,3.58-0.2c1.98-0.08,3.95,0.03,5.92,0.22c5,0.83,9.81,2.66,14.49,4.57c1.85,0.83,3.69,1.66,5.54,2.48
			c1.4,0.63,2.82,1.23,4.19,1.91c2.35,1.18,4.71,2.37,7.06,3.55c1.28,0.64,2.57,1.26,3.82,1.96c4,2.23,8.01,4.45,12.01,6.68
			c2.12,1.18,4.18,2.47,6.25,3.73c2.66,1.61,5.27,3.28,7.85,5.02c4.58,3.08,8.97,6.42,13.34,9.79c4.99,4.04,9.97,8.08,14.96,12.13
			c1.6,1.3,3.14,2.68,4.7,4.02c3.22,2.76,6.44,5.52,9.66,8.28c4.15,3.56,8.17,7.26,12.22,10.93c2.24,2.03,4.47,4.06,6.71,6.08
			c1.69,1.54,3.3,3.18,4.94,4.77c3.77,3.63,7.53,7.27,11.3,10.9c2.55,2.46,5.01,5.03,7.51,7.55c3.34,3.37,6.69,6.74,10.03,10.11
			c1.47,1.48,2.86,3.03,4.29,4.55c2.09,2.23,4.15,4.49,6.19,6.77c3.8,4.25,7.42,8.66,10.92,13.16c6.31,8.23,12.32,16.71,17.86,25.48
			c5.67,8.98,10.8,18.26,15,28.02c2.42,5.88,4.55,11.87,6.32,17.98c1.73,5.97,2.92,12.06,3.79,18.22c1.02,8.05,1.56,16.11,1.7,24.22
			c0.07,4.13,0.07,8.26-0.08,12.39c-0.14,3.76-0.48,7.5-0.96,11.23c-0.95,6.62-2.27,13.18-3.91,19.66
			c-0.87,3.45-1.86,6.86-2.89,10.26c-0.46,1.55-0.91,3.11-1.45,4.63c-1.99,5.65-3.99,11.3-5.98,16.95
			c-0.41,1.16-0.78,2.35-1.26,3.49c-0.95,2.26-1.9,4.52-2.84,6.78c-1.89,4.5-3.77,9-5.66,13.5c-2.59,6.04-5.18,12.07-7.77,18.11
			c-2.16,5.03-4.51,9.97-6.81,14.94c-1.34,2.9-2.67,5.79-4.01,8.69c-0.17,0.37-0.38,0.73-0.57,1.09c-0.75,1.41-1.51,2.82-2.26,4.22
			c-2.02,3.78-4.04,7.56-6.06,11.34c-0.86,1.6-1.66,3.25-2.61,4.8c-2.26,3.71-4.52,7.42-6.79,11.13c-1.06,1.74-2.12,3.47-3.18,5.21
			c-0.36,0.59-0.71,1.2-1.1,1.77c-2.39,3.54-4.79,7.07-7.18,10.61c-1.08,1.59-2.16,3.18-3.24,4.78c-1.44,2.12-3.01,4.16-4.57,6.19
			c-2.78,3.57-5.64,7.06-8.63,10.46c-3.41,3.88-7.03,7.59-10.67,11.26c-2.84,2.86-5.85,5.57-8.78,8.34
			c-1.22,1.15-2.43,2.3-3.64,3.45c-0.77,0.73-1.63,1.38-2.44,2.05c-2.92,2.44-5.84,4.89-8.76,7.33c-1.85,1.35-3.7,2.7-5.55,4.05
			c-1.26,0.92-2.52,1.84-3.78,2.76c-0.48,0.35-0.96,0.72-1.46,1.05c-2.63,1.7-5.26,3.41-7.89,5.11c-0.72,0.47-1.43,0.98-2.17,1.4
			c-1.14,0.65-2.29,1.31-3.43,1.96c-4.4,2.52-8.8,5.01-13.32,7.3c-2.3,1.16-4.59,2.35-6.93,3.42c-2.15,0.99-4.3,1.95-6.47,2.89
			c-4.08,1.67-8.19,3.35-12.53,4.15c-6.24,0.61-12.53,0.23-18.78,0.75c-0.55,0.07-1.1,0.15-1.65,0.22
			c-1.05,0.29-1.96,0.82-2.73,1.59c-1.16,1.15-1.81,2.74-1.81,4.38c0,1.63,0.66,3.22,1.81,4.38c1.01,1.01,2.58,1.82,4.06,1.82
			C1823.03,2107.97,1823.13,2107.96,1823.24,2107.95"/>
		<path class="st0" d="M123.13,2111.49c1.55-0.43,2.89-1.46,3.7-2.84c0.21-0.49,0.41-0.99,0.62-1.48c0.29-1.1,0.29-2.19,0-3.29
			c-0.83-4.69-1.45-9.41-2.09-14.14c-0.19-3.27-0.38-6.55-0.58-9.82c-0.13-2.16-0.28-4.31-0.32-6.47c-0.11-6.33-0.27-12.66-0.34-19
			c-0.09-7.13-0.17-14.27-0.25-21.4c-0.05-4.16-0.19-8.32-0.33-12.48c5.72-0.14,11.45-0.24,17.15-0.59
			c3.59-0.22,7.17-0.44,10.76-0.67c3.04-0.19,6.08-0.49,9.12-0.74c2.34-0.19,4.66-0.38,6.99-0.66c3.87-0.47,7.75-0.94,11.63-1.41
			c2.88-0.35,5.71-0.95,8.56-1.49l9.5-1.8c0.84-0.16,1.67-0.41,2.5-0.61c2.07-0.5,4.14-1,6.22-1.5c3.23-0.78,6.47-1.56,9.7-2.35
			c0.59-0.14,1.16-0.33,1.74-0.5c1.86-0.54,3.72-1.08,5.58-1.62c3.79-1.1,7.58-2.2,11.38-3.3c1.74-0.51,3.43-1.16,5.14-1.77
			c4.01-1.44,8.02-2.88,12.04-4.33c2.13-0.77,4.25-1.53,6.33-2.42c3.52-1.51,7.05-3.01,10.58-4.52c2.62-1.12,5.23-2.24,7.85-3.36
			c1.94-0.83,3.82-1.83,5.71-2.77c1.9-0.94,3.77-1.92,5.64-2.91c3.95-2.1,7.82-4.36,11.64-6.7c3.62-2.21,7.07-4.63,10.4-7.24
			c3.43-2.68,6.7-5.5,9.67-8.69c1.43-1.54,2.74-3.2,4-4.89c1.13-1.51,2.18-3.06,3.17-4.67c2.25-3.67,3.98-7.73,5.28-11.83
			c1.26-3.96,1.62-8.17,1.74-12.3c0.06-2.02,0.07-4.05,0-6.07c-0.08-2.4-0.3-4.79-0.48-7.18c-0.25-3.32-0.63-6.64-0.95-9.95
			c-0.67-7.01-1.83-13.99-3.37-20.86c-1.93-8.6-4.86-16.92-8.43-24.97c-3.47-7.82-7.88-15.22-12.99-22.08
			c-5.17-6.94-11.12-13.21-17.59-18.95c-3.25-2.89-6.68-5.56-10.14-8.19c-3.64-2.77-7.39-5.38-11.22-7.87
			c-4.15-2.69-8.38-5.26-12.71-7.64c-3.75-2.06-7.49-4.12-11.24-6.18c-1.32-0.72-2.63-1.45-3.95-2.17c-2.07-1.14-4.2-2.15-6.31-3.19
			c-12.75-6.27-25.92-11.6-39.44-15.97c-6.8-2.2-13.7-4.08-20.65-5.72c-3.52-0.83-7.07-1.53-10.62-2.17
			c-3.75-0.67-7.53-1.31-11.32-1.79c-3.84-0.48-7.68-0.96-11.52-1.44c0.51-0.14,1.01-0.29,1.52-0.43c2.93-0.83,5.87-1.62,8.78-2.51
			c5.67-1.74,11.34-3.48,17.01-5.2c5.91-1.79,11.82-3.55,17.69-5.45c5.67-1.84,11.35-3.61,16.95-5.66
			c3.98-1.46,7.96-2.92,11.94-4.38c2.1-0.77,4.17-1.53,6.21-2.44c6.15-2.75,12.29-5.5,18.44-8.25c1.86-0.83,3.66-1.82,5.48-2.74
			c1.82-0.93,3.62-1.88,5.42-2.85c3.9-2.1,7.7-4.39,11.44-6.76c7.4-4.68,14.43-9.87,21.08-15.55c3.1-2.65,6.06-5.44,8.89-8.37
			c3.11-3.22,5.9-6.74,8.59-10.31c2.33-3.1,4.38-6.4,6.09-9.87c1.99-4.03,3.46-8.31,4.56-12.65c1.05-4.12,1.62-8.36,1.84-12.6
			c0.23-4.43,0.04-8.92-0.26-13.34c-0.28-4.24-0.88-8.48-1.58-12.67c-0.71-4.29-1.64-8.54-2.96-12.69
			c-1.23-3.88-2.84-7.67-4.63-11.32c-1.82-3.72-4.09-7.19-6.58-10.48c-2.42-3.2-5.03-6.2-7.9-8.99c-3.08-3-6.56-5.63-10.18-7.94
			c-7.14-4.56-15.24-7.37-23.44-9.29c-4.21-0.99-8.52-1.58-12.81-2.09c-4.49-0.54-9-0.71-13.52-0.77
			c-14.06-0.17-28.13,0.13-42.19,0.49c-2.47,0.06-4.96,0.04-7.43,0.2c-3.19,0.21-6.38,0.41-9.56,0.62
			c-3.48,0.23-6.95,0.45-10.43,0.68c-2.46,0.16-4.91,0.46-7.35,0.69c-3.56,0.34-7.12,0.68-10.68,1.02c-3.24,0.31-6.48,0.71-9.7,1.14
			c-2.27,0.31-4.54,0.66-6.8,1.04c-2.25,0.38-4.47,0.69-6.64,1.41c-2.1,0.69-4.12,1.74-5.8,3.18c-0.21,0.18-0.41,0.35-0.62,0.53
			c-0.51,0.6-1,1.22-1.47,1.85c-0.42,0.88-0.82,1.75-1.06,2.7c-0.24,0.97-0.28,2.01-0.4,3c-0.13,1.03-0.1,2.08-0.12,3.11
			c-0.01,0.89-0.06,1.78-0.09,2.66c-0.09,2.69-0.2,5.37-0.31,8.06c-0.53,12.4-0.99,24.81-1.43,37.21
			c-0.23,6.45-0.38,12.9-0.53,19.36c-0.14,6.14-0.37,12.29-0.56,18.43c-0.19,6.14-0.4,12.29-0.6,18.43
			c-0.2,6.03-0.29,12.06-0.42,18.09c-0.24,10.83-0.27,21.67-0.27,32.5c0,13.43,0,26.86,0,40.29c0,12.64,0.01,25.29,0.01,37.93
			c0,10.86-0.02,21.72,0.05,32.58c0.08,11.81,0.07,23.62,0.31,35.42c0.16,7.85,0.32,15.7,0.48,23.56c0.1,5.13,0.32,10.25,0.48,15.38
			c0.18,5.58,0.28,11.17,0.56,16.75c0.38,7.58,0.76,15.16,1.15,22.74c0.23,4.63,0.52,9.24,0.82,13.87
			c0.43,6.57,0.95,13.14,1.3,19.72c0.38,6.99,0.75,13.99,1.13,20.98c0.1,1.94,0.19,3.88,0.27,5.81c-1.07,0.03-2.14,0.06-3.2,0.11
			c-0.68,0.03-1.36,0.09-2.04,0.15c-0.55,0.07-1.1,0.15-1.64,0.22c-1.05,0.29-1.96,0.83-2.73,1.59c-1.15,1.15-1.81,2.74-1.81,4.38
			c0,1.63,0.66,3.22,1.81,4.38c1.07,1.07,2.81,1.95,4.38,1.81c1.88-0.17,3.76-0.23,5.64-0.27c0.15,4.61,0.31,9.22,0.36,13.84
			c0.08,6.72,0.12,13.44,0.24,20.15c0.08,4.52,0.16,9.05,0.24,13.57c0.06,3.22,0.11,6.43,0.3,9.65c0.16,2.75,0.32,5.51,0.48,8.26
			c0.06,0.98,0.11,1.95,0.17,2.93c0.05,0.85,0.18,1.69,0.3,2.54c0.71,5.17,1.36,10.33,2.27,15.47c0.27,1.51,1.57,2.95,2.84,3.7
			c0.95,0.56,2.04,0.84,3.13,0.84C122.05,2111.7,122.6,2111.63,123.13,2111.49 M162.95,2006c-3.71,0.3-7.41,0.6-11.11,0.9
			c-3.06,0.25-6.13,0.39-9.2,0.57c-5.94,0.37-11.89,0.54-17.84,0.68c-0.55,0.01-1.09,0.02-1.64,0.04c-0.01-0.2-0.01-0.4-0.02-0.6
			c-0.07-2.47-0.27-4.94-0.4-7.41c-0.34-6.28-0.6-12.57-1.02-18.84c-0.78-11.91-1.63-23.81-2.23-35.73
			c-0.35-6.98-0.7-13.96-1.05-20.94c-0.1-1.94-0.13-3.88-0.19-5.82c-0.14-4.35-0.28-8.71-0.42-13.07
			c-0.42-12.73-0.66-25.45-0.92-38.19c-0.23-11.26-0.2-22.52-0.27-33.78c-0.08-11.29-0.04-22.58-0.05-33.87
			c-0.01-12.64-0.01-25.27-0.01-37.91c0.39,0.07,0.79,0.13,1.17,0.2c1.17,0.2,2.35,0.33,3.53,0.48c1.52,0.2,3.04,0.37,4.57,0.53
			c3.47,0.38,6.93,0.75,10.39,1.13c4.93,0.53,9.85,1.21,14.77,1.84c5.2,0.8,10.39,1.65,15.53,2.71c5.61,1.16,11.16,2.61,16.67,4.17
			c10.41,2.96,20.64,6.59,30.64,10.74c3.78,1.62,7.53,3.33,11.24,5.1c2.89,1.38,5.82,2.73,8.62,4.27c3.35,1.84,6.7,3.68,10.05,5.53
			c2.79,1.53,5.57,3.06,8.36,4.6c1.56,0.86,3.06,1.83,4.58,2.75c2.12,1.29,4.22,2.62,6.31,3.97c3.83,2.48,7.54,5.16,11.17,7.93
			c8.18,6.43,15.76,13.61,22.23,21.78c2.77,3.68,5.29,7.52,7.64,11.48c2.44,4.12,4.53,8.44,6.43,12.84
			c4.36,10.66,7.13,21.85,8.74,33.24c0.53,4.16,0.9,8.34,1.3,12.52c0.63,6.57,1.08,13.24,0.36,19.82c-0.48,2.69-1.27,5.27-2.27,7.81
			c-1.55,3.4-3.42,6.58-5.64,9.59c-1.6,1.99-3.32,3.85-5.15,5.63c-1.97,1.91-4.1,3.66-6.26,5.36c-6.03,4.55-12.6,8.37-19.22,11.98
			c-4.52,2.46-9.12,4.83-13.85,6.86c-5.44,2.32-10.88,4.65-16.31,6.97c-6.25,2.24-12.5,4.49-18.75,6.74
			c-1.7,0.61-3.44,1.09-5.17,1.59c-4.11,1.19-8.21,2.38-12.32,3.58c-1.76,0.51-3.5,1.01-5.27,1.45c-4.02,0.97-8.05,1.95-12.07,2.92
			c-2,0.48-3.99,1-6.01,1.38c-3.98,0.75-7.96,1.51-11.94,2.26c-0.72,0.14-1.45,0.27-2.17,0.41
			C173.3,2004.86,168.14,2005.58,162.95,2006 M196.33,1722.43c-1.95,0.71-3.93,1.31-5.91,1.95c-3.86,1.25-7.71,2.51-11.57,3.76
			c-5.64,1.83-11.36,3.46-17.04,5.18c-5.15,1.56-10.28,3.24-15.46,4.71c-6.05,1.73-12.09,3.43-18.15,5.11
			c-2.8,0.77-5.6,1.54-8.39,2.32c-1.08,0.3-2.16,0.61-3.24,0.93c0-8.19,0-16.38,0-24.57c0-11.18,0.08-22.37,0.33-33.55
			c0.13-5.88,0.24-11.76,0.43-17.63c0.2-6.1,0.4-12.19,0.59-18.29c0.2-6.23,0.41-12.46,0.55-18.69c0.16-6.62,0.34-13.24,0.57-19.86
			c0.42-11.75,0.9-23.49,1.36-35.24c0.08-1.9,0.15-3.8,0.23-5.7c0.04-1.05,0.07-2.11,0.11-3.16c0.04-1.12,0.04-2.24,0.1-3.36
			c0.11-0.06,0.23-0.12,0.34-0.18c1.53-0.53,3.08-0.85,4.69-1.12c2.22-0.37,4.43-0.74,6.66-1.06c8.29-1.07,16.62-1.76,24.94-2.55
			c1.92-0.18,3.84-0.29,5.77-0.41c4.23-0.28,8.46-0.55,12.69-0.83c5.84-0.38,11.69-0.43,17.54-0.58c5.6-0.15,11.2-0.22,16.8-0.26
			c3.59-0.03,7.18-0.06,10.77-0.09c3.24-0.03,6.48,0.02,9.72,0.07c4.28,0.07,8.53,0.38,12.78,0.9c7.07,1.02,14.07,2.66,20.71,5.32
			c4.17,1.87,8.12,4.14,11.79,6.85c3.78,3.07,7.15,6.55,10.18,10.35c3.02,4.06,5.55,8.38,7.61,13.01c1.34,3.31,2.46,6.69,3.33,10.15
			c0.93,3.68,1.57,7.44,2.12,11.19c0.46,3.7,0.75,7.4,0.86,11.13c0.13,4.11,0.14,8.21-0.31,12.29c-0.75,4.56-1.95,9.01-3.63,13.31
			c-1.99,4.44-4.56,8.51-7.48,12.4c-2.97,3.74-6.17,7.25-9.61,10.56c-3.52,3.39-7.28,6.55-11.12,9.57
			c-6.29,4.78-12.92,9.12-19.74,13.09c-3.53,2.06-7.15,3.95-10.78,5.8c-1.84,0.94-3.68,1.89-5.57,2.73
			c-5.8,2.6-11.61,5.2-17.42,7.79C208.42,1718,202.38,1720.22,196.33,1722.43 M119.71,1567.29c0.08-0.11,0.16-0.21,0.24-0.31
			C119.87,1567.08,119.79,1567.18,119.71,1567.29 M120.77,1566.46c0-0.02,0-0.04,0.01-0.06c0,0,0,0,0,0
			C120.78,1566.42,120.77,1566.44,120.77,1566.46 M120.8,1566.18L120.8,1566.18C120.8,1566.18,120.8,1566.18,120.8,1566.18
			C120.81,1566.18,120.81,1566.18,120.8,1566.18C120.8,1566.18,120.8,1566.18,120.8,1566.18"/>
		<path class="st0" d="M1235.64,2105.06c1.55-0.42,2.89-1.46,3.7-2.84c0.21-0.49,0.41-0.98,0.62-1.48c0.29-1.1,0.29-2.19,0-3.29
			c-0.2-1.4-0.41-2.79-0.61-4.18c-0.39-3.07-0.72-6.15-1.07-9.22c-0.26-2.19-0.52-4.36-0.63-6.56c-0.3-5.85-0.67-11.7-0.77-17.56
			c-0.1-5.77-0.24-11.53-0.26-17.3c-0.03-6.67-0.06-13.33-0.1-20c-0.06-11.88-0.18-23.75-0.37-35.63
			c-0.19-12.19-0.27-24.37-0.34-36.56c-0.07-10.74-0.05-21.49-0.05-32.23c0-7.66-0.01-15.32-0.01-22.99c0-5.03,0.15-10.07,0.24-15.1
			c0.07-4.06,0.15-8.12,0.22-12.18c0.03-1.42,0.02-2.84,0.1-4.25c0.42-7.43,0.84-14.86,1.26-22.29c0.65-11.57,1.36-23.13,2.04-34.69
			c0.1-1.65,0.14-3.3,0.2-4.94c0.17-4.22,0.33-8.44,0.49-12.66c0.18-4.72,0.37-9.45,0.54-14.17c0.28-7.58,0.55-15.16,0.83-22.73
			c0.2-5.43,0.56-10.85,0.85-16.28c0.27-4.96,0.48-9.93,0.85-14.88c0.54-7.34,1.09-14.68,1.63-22.02
			c0.43-5.85,1.01-11.69,1.51-17.54c0.45-5.22,0.92-10.44,1.39-15.67c1.05-11.54,2.06-23.08,3.06-34.63
			c1.08-12.55,2.21-25.09,3.2-37.64c0.64-8.07,1.16-16.17,2.03-24.22c6.27,5.79,11.34,12.84,16.54,19.57
			c-0.22-0.29-0.44-0.57-0.66-0.85c1.71,2.54,3.42,5.08,5.13,7.62c1.02,1.51,2.03,3.01,3.04,4.52c0.36,0.53,0.74,1.06,1.06,1.61
			c1.79,3.02,3.58,6.04,5.37,9.06c0.94,1.58,1.88,3.17,2.82,4.75c0.37,0.63,0.79,1.24,1.12,1.89c3.15,6.14,6.29,12.27,9.44,18.41
			c2.39,4.65,4.67,9.36,6.98,14.04c1.78,3.6,3.57,7.21,5.35,10.82c0.93,1.88,1.76,3.8,2.63,5.71c3.17,6.93,6.34,13.87,9.51,20.8
			c2.17,5.56,4.34,11.11,6.52,16.67c1.36,3.49,2.73,6.98,4.09,10.46c0.43,1.1,0.87,2.21,1.27,3.32c2.49,7.03,4.98,14.06,7.47,21.08
			c1.41,3.97,2.84,7.91,4.13,11.92c3.65,11.35,7.42,22.67,10.85,34.09c2.33,7.75,4.66,15.51,6.99,23.26
			c1.15,3.81,2.2,7.65,3.27,11.49c2.12,7.64,4.25,15.29,6.37,22.93c1.15,4.12,2.18,8.28,3.25,12.42c1.79,6.94,3.58,13.88,5.37,20.82
			c1.39,5.4,2.64,10.85,3.96,16.27c2.96,12.19,5.8,24.4,8.64,36.62c1.22,5.23,2.33,10.49,3.49,15.73
			c1.12,5.08,2.23,10.16,3.23,15.27c2.28,11.65,4.53,23.3,6.75,34.96c1.16,6.1,2.29,12.21,3.54,18.29
			c1.22,5.96,2.51,11.9,3.84,17.84c0.3,1.34,0.69,2.67,1.03,4.01c0.35,1.35,0.68,2.72,1.05,4.07c0.83,3.04,1.66,6.06,2.56,9.08
			c1.05,3.5,2.25,6.99,3.81,10.29c0.41,0.87,1.13,1.63,1.8,2.31c0.77,0.8,2.14,1.54,3.21,1.83c1.3,0.36,2.57,0.24,3.83-0.18
			c0.49-0.21,0.98-0.42,1.48-0.62c0.59-0.44,1.17-0.89,1.74-1.37c0.32-0.42,0.65-0.83,0.97-1.25c0.32-0.38,0.56-0.81,0.73-1.27
			c0.44-0.97,0.78-1.93,1.12-2.93c0.68-2.04,1.16-4.13,1.58-6.24c1-4.94,1.46-9.97,1.96-14.98c0.25-2.51,0.53-5.02,0.7-7.54
			c0.43-6.14,0.86-12.27,1.19-18.42c1.24-23.16,2.23-46.34,3.03-69.52c0.46-13.33,0.9-26.67,1.33-40.01
			c0.17-5.17,0.37-10.34,0.57-15.51c0.2-5.23,0.36-10.46,0.63-15.68c1.26-24.73,2.63-49.44,4.03-74.16
			c0.63-11.09,1.27-22.18,1.91-33.27c0.35-6.12,0.65-12.25,1.05-18.38c0.47-7.1,0.94-14.2,1.41-21.31
			c0.7-10.56,1.57-21.11,2.12-31.69c0.61-11.71,1.16-23.42,1.65-35.14c0.51-12.15,0.98-24.31,1.57-36.46
			c0.6-12.36,1.39-24.71,1.95-37.07c0.3-6.6,0.5-13.22,0.5-19.83c0-3.37-2.82-6.19-6.19-6.19c-3.37,0-6.19,2.82-6.19,6.19
			c0,11.94-0.66,23.88-1.34,35.8c-0.69,12.1-1.26,24.21-1.79,36.32c-0.51,11.85-1,23.7-1.51,35.55c-0.47,10.85-0.98,21.7-1.74,32.53
			c-0.93,13.18-1.83,26.36-2.7,39.55c-0.68,10.3-1.2,20.61-1.79,30.92c-1.42,24.66-2.82,49.31-4.17,73.97
			c-0.62,11.36-1.19,22.72-1.62,34.09c-0.48,12.81-0.91,25.62-1.33,38.44c-0.74,22.86-1.61,45.72-2.66,68.57
			c-0.43,9.38-0.91,18.77-1.41,28.15c-0.25,4.67-0.65,9.34-0.98,14c-0.13,1.86-0.36,3.71-0.54,5.56c-0.11,1.11-0.22,2.22-0.33,3.33
			c-0.09-0.33-0.17-0.66-0.26-0.98c-0.7-2.72-1.48-5.42-2.09-8.16c-0.73-3.27-1.46-6.53-2.19-9.8c-0.68-3.05-1.26-6.13-1.88-9.19
			c-0.44-2.14-0.86-4.28-1.27-6.42c-1.11-5.86-2.23-11.73-3.35-17.59c-1.07-5.61-2.13-11.22-3.23-16.83
			c-0.8-4.11-1.61-8.21-2.41-12.32c-0.33-1.69-0.64-3.38-1.01-5.05c-1.57-7.14-3.15-14.28-4.72-21.42
			c-1.16-5.27-2.43-10.52-3.65-15.78c-2.87-12.37-5.88-24.7-8.88-37.03c-1.04-4.3-2.17-8.57-3.27-12.85
			c-1.79-6.94-3.58-13.88-5.37-20.82c-1.28-4.95-2.73-9.86-4.1-14.79c-1.75-6.31-3.51-12.62-5.26-18.93
			c-0.42-1.53-0.92-3.05-1.37-4.58c-1.17-3.89-2.34-7.79-3.51-11.68c-1.17-3.89-2.34-7.79-3.51-11.68
			c-0.46-1.53-0.89-3.07-1.38-4.58c-2.05-6.36-4.09-12.71-6.14-19.07c-1.43-4.44-2.77-8.92-4.32-13.31
			c-2.55-7.2-5.1-14.41-7.66-21.61c-1.38-3.89-2.74-7.78-4.24-11.62c-2.94-7.51-5.87-15.01-8.8-22.51c-0.78-2-1.5-4.04-2.39-6
			c-1.02-2.24-2.04-4.47-3.07-6.71c-2.98-6.52-5.96-13.04-8.94-19.56c-0.71-1.55-1.5-3.06-2.25-4.58
			c-1.87-3.79-3.75-7.58-5.62-11.37c-2.17-4.4-4.36-8.78-6.6-13.14c-1.92-3.75-3.85-7.51-5.77-11.26c-0.8-1.56-1.55-3.15-2.45-4.65
			c-1.95-3.29-3.9-6.58-5.85-9.88c-1.13-1.9-2.18-3.86-3.41-5.69c-2.08-3.09-4.16-6.19-6.24-9.28c-0.78-1.16-1.56-2.32-2.34-3.47
			c-0.65-0.97-1.42-1.88-2.14-2.8c-6.47-8.36-12.8-17.23-21.57-23.35c-0.86-0.6-1.89-1-2.86-1.39c-0.99-0.4-2.03-0.67-3.11-0.68
			c-1.01-0.01-1.99,0.12-2.96,0.4c-1.28,0.36-2.18,1.09-3.14,1.97c-0.85,0.79-1.54,2.15-1.9,3.23c-0.26,0.79-0.39,1.56-0.53,2.39
			c-0.25,1.48-0.39,2.99-0.57,4.49c-0.35,2.98-0.62,5.97-0.91,8.97c-1.07,11.32-1.76,22.67-2.76,33.99
			c-1.08,12.22-2.13,24.45-3.19,36.67c-0.95,10.93-1.99,21.86-2.93,32.79c-0.57,6.54-1.22,13.08-1.7,19.63
			c-0.5,6.77-1,13.53-1.5,20.3c-0.35,4.71-0.61,9.42-0.86,14.13c-0.23,4.28-0.45,8.56-0.68,12.85c-0.1,1.88-0.23,3.76-0.3,5.65
			c-0.42,11.6-0.84,23.2-1.29,34.8c-0.26,6.77-0.53,13.53-0.79,20.3c-0.08,2.04-0.24,4.08-0.36,6.12
			c-0.25,4.27-0.51,8.54-0.76,12.81c-0.74,12.33-1.42,24.66-2.12,37c-0.27,4.86-0.25,9.73-0.34,14.59
			c-0.07,4.16-0.15,8.32-0.22,12.49c-0.03,1.57-0.08,3.15-0.08,4.72c0.01,24.98,0.02,49.96,0.19,74.94
			c0.07,10.53,0.34,21.05,0.42,31.57c0.1,13.2,0.19,26.39,0.25,39.59c0.02,3.85,0.07,7.69,0.13,11.54c0.08,4.64,0.07,9.29,0.3,13.93
			c0.17,3.24,0.33,6.48,0.5,9.72c0.08,1.57,0.1,3.16,0.28,4.72c0.35,3.05,0.71,6.09,1.06,9.14c0.44,3.84,0.96,7.67,1.52,11.49
			c0.21,0.49,0.42,0.99,0.62,1.48c0.55,0.93,1.29,1.67,2.22,2.22c0.95,0.56,2.04,0.84,3.13,0.84
			C1234.56,2105.28,1235.11,2105.21,1235.64,2105.06 M1428.35,2052.65c0.07-0.09,0.14-0.18,0.2-0.26
			C1428.49,2052.48,1428.42,2052.56,1428.35,2052.65"/>
	</g>
	<g>
		<path class="st0" d="M787.21,1311.39c-0.79-4.05-1.44-8.11-2.16-12.17c-0.69-3.86-1.64-7.66-2.45-11.49
			c-0.83-3.94-1.65-7.89-2.26-11.87c-0.59-3.84-1.16-7.67-1.72-11.51c-0.02-0.37-0.07-0.74-0.16-1.1c-0.01-0.04-0.01-0.09-0.02-0.13
			c0-0.01,0-0.01,0-0.02c-0.12-0.88-0.24-1.77-0.36-2.65c-0.23-1.73-0.46-3.46-0.7-5.19c0-0.03-0.01-0.07-0.01-0.1v0
			c0-0.01,0-0.02,0-0.03c-0.01-0.46-0.06-0.92-0.18-1.38c-0.01-0.04-0.01-0.07-0.02-0.11c-0.34-2.63-0.65-5.27-0.97-7.91
			c-0.32-2.61-0.65-5.22-0.98-7.82c-0.35-2.82-0.68-5.65-1.13-8.46c-0.59-3.64-1.17-7.27-1.76-10.91c-0.38-2.33-0.86-4.64-1.3-6.96
			c-0.52-2.74-0.96-5.52-1.57-8.24c-0.73-3.25-1.46-6.5-2.18-9.75c-1.31-5.84-2.64-11.68-3.97-17.51c-1.3-5.7-2.83-11.34-4.27-17.01
			c-1.43-5.61-3.08-11.17-4.65-16.75c-3.16-11.24-6.33-22.47-9.44-33.73c-1.53-5.55-3.07-11.1-4.61-16.65
			c-1.56-5.62-3.24-11.2-4.87-16.79c-6.49-22.26-14.17-44.14-21.71-66.06c-3.5-10.17-7.22-20.26-10.85-30.38
			c-1.85-5.16-3.67-10.34-5.6-15.48c-1.39-3.71-2.78-7.42-4.18-11.13c-0.8-2.12-1.54-4.27-2.39-6.37
			c-1.36-3.38-2.72-6.75-4.08-10.13c-1.44-3.57-2.82-7.17-4.34-10.7c-2.65-6.16-5.31-12.32-7.96-18.49
			c-2.28-5.46-4.57-10.91-6.85-16.37c-0.75-1.79-1.41-3.61-2.09-5.42c-1.38-3.62-2.76-7.24-4.14-10.86
			c-2.05-5.39-3.87-10.87-5.78-16.31c-1.82-5.17-3.57-10.37-5.36-15.56c-0.94-2.73-1.99-5.44-2.99-8.15
			c-0.84-2.29-1.65-4.58-2.58-6.83c-1.53-3.75-3.01-7.52-4.67-11.21c-1.43-3.16-2.96-6.39-5.04-9.17c-1.16-1.55-2.2-3.11-4-3.99
			c-0.49-0.21-0.98-0.42-1.48-0.62c-1.1-0.3-2.19-0.3-3.29,0c-1.33,0.27-2.67,1.01-3.65,1.98c-1.47,1.48-2.05,3.61-2.69,5.53
			c-0.23,0.7-0.43,1.41-0.65,2.11c-0.35,1.14-0.66,2.29-0.99,3.44c-0.87,3.05-1.77,6.09-2.67,9.13c-1.59,5.35-3.31,10.66-4.98,15.99
			c-1.79,5.72-3.42,11.5-5.14,17.24c-0.67,2.23-1.35,4.46-2.05,6.68c-0.91,2.89-1.76,5.81-2.73,8.68
			c-3.68,10.95-7.25,21.95-11.32,32.76c-2.13,5.66-4.28,11.3-6.47,16.93c-1.01,2.6-2.1,5.19-3.05,7.82
			c-1.06,2.96-2.12,5.92-3.18,8.89c-0.85,2.36-1.78,4.72-2.54,7.11c-1.02,3.22-2.03,6.43-3.05,9.65c-0.7,2.22-1.45,4.44-2.1,6.68
			c-0.96,3.32-1.92,6.64-2.88,9.96c-3.07,10.6-5.9,21.27-8.67,31.95c-1.37,5.28-2.79,10.54-4.02,15.85
			c-0.92,3.98-1.85,7.96-2.77,11.94c-0.44,1.88-0.91,3.77-1.31,5.66c-1.46,6.86-2.92,13.72-4.38,20.57
			c-1.1,5.17-1.98,10.38-2.94,15.58c-0.88,4.75-1.78,9.5-2.59,14.26c-1.18,6.9-2.37,13.79-3.55,20.68
			c-1.8,10.49-3.45,20.99-5.33,31.47l-2.22,12.35c-0.38,2.11-0.72,4.24-1.14,6.35c-1.29,6.5-2.59,13-3.89,19.5
			c-0.89,4.46-1.73,8.91-2.54,13.39c-0.74,4.1-1.49,8.2-2.23,12.3c-0.35,1.95-0.77,3.9-1.06,5.86c-1.01,6.66-2.02,13.33-3.02,19.99
			c-0.72,4.79-1.37,9.6-2.03,14.4c-0.72,5.27-1.39,10.55-2.19,15.81c-0.97,6.44-1.94,12.88-2.91,19.31c-0.12,0.8-0.33,1.6-0.5,2.39
			c-0.41,1.98-0.82,3.96-1.23,5.94c-0.64,3.09-1.28,6.18-1.92,9.27c-0.15,0.7-0.36,1.39-0.55,2.07c-0.54,2.01-1.07,4.03-1.6,6.05
			c-0.64,2.4-1.19,4.85-1.96,7.21c-2.24,6.86-4.54,13.7-6.71,20.57c-1.02,3.21,1.16,6.74,4.32,7.61c0.54,0.15,1.08,0.22,1.63,0.22
			c1.09,0,2.18-0.29,3.13-0.84c1.43-0.84,2.35-2.14,2.84-3.7c2.04-6.43,4.19-12.82,6.28-19.22c0.71-2.18,1.29-4.38,1.87-6.59
			c0.88-3.31,1.76-6.61,2.64-9.92c0.16-0.59,0.26-1.2,0.38-1.8c0.39-1.87,0.78-3.73,1.16-5.6c0.69-3.35,1.39-6.7,2.09-10.06
			c0.41-1.98,0.62-4.01,0.92-6c0.61-4.06,1.22-8.11,1.84-12.16c1.51-10.04,2.68-20.12,4.2-30.16c1.06-7.01,2.12-14.03,3.18-21.05
			c0.23-1.55,0.55-3.09,0.83-4.63c0.73-4.01,1.46-8.02,2.19-12.04c0.82-4.54,1.65-9.08,2.55-13.61c1.39-6.96,2.78-13.93,4.17-20.89
			c0.33-1.64,0.6-3.29,0.89-4.93c0.73-4.07,1.46-8.13,2.19-12.2c0.82-4.59,1.63-9.18,2.4-13.78c2.14-12.86,4.32-25.72,6.52-38.57
			c0.8-4.66,1.64-9.3,2.51-13.95c0.74-4.01,1.49-8.03,2.24-12.04c0.28-1.5,0.54-3.01,0.86-4.51c1.48-6.95,2.95-13.9,4.43-20.84
			c1.19-5.59,2.56-11.14,3.86-16.71c1.21-5.21,2.56-10.37,3.9-15.54c1.36-5.23,2.73-10.46,4.13-15.67
			c2.97-11.05,5.99-22.08,9.44-32.99c1.14-3.6,2.28-7.21,3.41-10.81c0.63-1.99,1.38-3.95,2.08-5.91c1.24-3.45,2.47-6.9,3.71-10.35
			c0.77-2.14,1.64-4.23,2.46-6.35c2.2-5.63,4.37-11.27,6.5-16.92c0.93-2.46,1.92-4.9,2.77-7.39l3.46-10.1
			c3.51-10.26,6.99-20.52,10.09-30.91c2.66-8.91,5.29-17.81,8.06-26.68c1.27-4.07,2.53-8.14,3.74-12.22
			c0.17-0.57,0.34-1.14,0.5-1.71c0.23,0.5,0.46,1,0.68,1.5c1.09,2.67,2.19,5.34,3.28,8.01c0.98,2.41,1.82,4.88,2.71,7.32
			c0.87,2.36,1.77,4.72,2.59,7.1c1.19,3.47,2.38,6.94,3.58,10.41c1.93,5.62,3.92,11.23,5.9,16.83c1.93,5.48,4.07,10.89,6.14,16.33
			c2.7,7.08,5.75,14.04,8.67,21.03c2.79,6.67,5.7,13.3,8.57,19.94c2.35,5.83,4.7,11.66,7.05,17.5c2.1,5.21,3.98,10.52,5.96,15.78
			c3.7,9.88,7.21,19.83,10.78,29.76c1.92,5.34,3.9,10.67,5.74,16.04c1.92,5.59,3.86,11.17,5.77,16.76c1.93,5.67,3.92,11.32,5.8,17
			c1.1,3.32,2.19,6.64,3.29,9.96c0.73,2.2,1.5,4.4,2.18,6.62c0.81,2.64,1.64,5.28,2.47,7.93c-1.2-0.12-2.4-0.2-3.63-0.21
			c-1.27-0.01-2.54-0.01-3.81-0.02c-2.8-0.02-5.59-0.04-8.39-0.07c-5-0.05-10.01-0.1-15.02-0.28c-10.62-0.38-21.24-0.98-31.86-1.06
			c-11.34-0.08-22.69-0.08-34.03-0.1c-4.77-0.01-9.54-0.01-14.3-0.08c-5.33-0.08-10.66-0.09-15.99-0.31
			c-1.69-0.07-3.37-0.14-5.06-0.21c-0.77-0.03-1.55-0.03-2.31-0.1c-2.21-0.21-4.42-0.42-6.63-0.63c-2.63-0.43-5.26-0.86-7.88-1.36
			c-0.55-0.07-1.1-0.15-1.65-0.22c-1.12,0-2.16,0.28-3.12,0.84c-1.38,0.81-2.42,2.15-2.84,3.7c-0.44,1.6-0.21,3.34,0.62,4.77
			c0.76,1.29,2.18,2.55,3.7,2.84c1.75,0.34,3.51,0.64,5.27,0.93c1.73,0.29,3.48,0.64,5.23,0.81c1.5,0.14,3,0.28,4.49,0.43
			c1.02,0.1,2.05,0.24,3.07,0.28c3.13,0.13,6.26,0.26,9.4,0.38c2.44,0.1,4.89,0.08,7.33,0.12c10.92,0.17,21.83,0.19,32.75,0.21
			c10.52,0.02,21.05-0.04,31.56,0.28c10.44,0.32,20.86,0.9,31.31,1.06c3.71,0.05,7.42,0.1,11.13,0.13c0.94,0.01,1.88,0,2.82,0
			c2.47-0.01,4.95-0.02,7.41,0.18c0.35,0.05,0.71,0.09,1.06,0.14c1.03,0,2-0.26,2.91-0.74c1.39,4.71,2.81,9.41,4.12,14.14
			c3.1,11.22,6.14,22.47,9.31,33.68c1.57,5.55,3.16,11.1,4.72,16.66c0.92,3.26,1.83,6.52,2.75,9.79c0.63,2.26,1.31,4.5,1.9,6.77
			c0.86,3.36,1.72,6.71,2.58,10.07c0.57,2.24,1.2,4.47,1.71,6.72c1.25,5.52,2.52,11.03,3.76,16.55c0.92,4.13,1.85,8.27,2.78,12.4
			c0.66,2.95,1.16,5.93,1.72,8.9c0.53,2.76,1.07,5.51,1.52,8.28c0.57,3.54,1.14,7.07,1.71,10.61c0.68,5.41,1.36,10.82,2.03,16.23
			l0.6,4.85c0.01,0.12,0.03,0.24,0.05,0.36c0.01,0.5,0.07,0.99,0.19,1.46l0.24,1.76c0.25,1.84,0.49,3.69,0.74,5.53
			c0.04,0.32,0.08,0.64,0.12,0.95c0.02,0.38,0.07,0.76,0.16,1.13c0.02,0.14,0.04,0.28,0.06,0.42c0.1,0.71,0.21,1.43,0.31,2.15
			c0.45,3.04,0.89,6.08,1.36,9.13c0.44,2.87,0.96,5.72,1.49,8.58c0.87,4.72,2.06,9.38,3.04,14.08c0.99,4.75,1.64,9.56,2.57,14.32
			c0.29,1.52,1.55,2.94,2.84,3.7c1.43,0.84,3.17,1.06,4.77,0.62c1.55-0.43,2.89-1.46,3.7-2.84c0.21-0.49,0.42-0.99,0.62-1.48
			C787.51,1313.59,787.51,1312.49,787.21,1311.39z"/>
		<g>
			<path class="st0" d="M2015.35,797.43c-1.64,0-3.22,0.66-4.38,1.81c-1.2,1.2-1.73,2.71-1.81,4.38c-0.15,3.1-0.32,6.2-0.39,9.3
				c-0.07,2.83-0.13,5.66-0.21,8.5c-0.06,1.94-0.11,3.89-0.17,5.83c-0.03,0.97-0.03,1.95-0.1,2.92c-0.24,3.54-0.49,7.07-0.73,10.61
				c-0.39,5.58-0.95,11.15-1.44,16.72c-0.48,5.5-1.02,11.01-1.46,16.52c-0.47,5.89-0.93,11.77-1.4,17.66
				c-0.22,2.82-0.36,5.65-0.54,8.47c-0.21,3.29-0.42,6.58-0.63,9.87c-0.39,6.11-0.94,12.21-1.41,18.31
				c-0.45,5.84-1.02,11.68-1.54,17.51c-0.92,10.35-1.78,20.71-2.55,31.08c-0.49,6.7-0.99,13.41-1.48,20.12
				c-0.18,2.41-0.25,4.83-0.37,7.24c-0.2,3.99-0.41,7.99-0.61,11.98c-0.54,10.6-0.9,21.22-1.21,31.83c-0.16,5.5-0.37,11-0.44,16.51
				c-0.08,6.24-0.2,12.49-0.22,18.74c-0.09,24.07-0.11,48.14-0.11,72.21c0,22.7,0,45.41,0,68.11v71.72v19.11V1325
				c0,3.29,0.09,6.6-0.17,9.88c-0.13,1.57,0.73,3.3,1.81,4.38c1.15,1.15,2.74,1.81,4.38,1.81c1.63,0,3.22-0.66,4.38-1.81l0.97-1.25
				c0.56-0.97,0.84-2.01,0.85-3.12c0.23-2.82,0.17-5.65,0.17-8.48v-8.69v-15.92v-34.37v-72.35c0-23.49,0-46.99,0.01-70.48
				c0-11.64,0.03-23.28,0.08-34.91c0.04-10.69,0.1-21.38,0.41-32.07c0.17-5.95,0.29-11.9,0.52-17.84c0.27-6.83,0.54-13.67,0.82-20.5
				c0.24-5.94,0.6-11.88,0.91-17.82c0.26-5.14,0.66-10.26,1.03-15.39c0.89-12.02,1.87-24.03,2.85-36.04
				c0.51-6.24,1.11-12.48,1.66-18.73c0.51-5.72,0.9-11.45,1.34-17.18c0.44-5.67,0.78-11.35,1.14-17.02
				c0.36-5.7,0.82-11.39,1.27-17.09c0.93-11.77,2.02-23.53,3.05-35.29c0.25-2.86,0.44-5.72,0.64-8.59c0.14-1.99,0.27-3.98,0.41-5.97
				c0.09-1.29,0.08-2.58,0.12-3.87c0.22-7.56,0.38-15.12,0.74-22.67C2021.7,800.24,2018.6,797.43,2015.35,797.43z"/>
			<path class="st0" d="M1977.13,1054.82c-0.08,0-0.16,0-0.24,0.01c-11.67,0.62-23.35,1.19-35.04,1.29
				c-10.8,0.1-21.59,0.16-32.38,0.17c-11.45,0.01-22.89,0.02-34.34,0.02h-31.2c-5.04,0-10.08-0.01-15.13,0.01
				c-4.88,0.03-9.74,0.23-14.61,0.46c-0.04-0.86-0.08-1.72-0.12-2.59c-0.28-5.97-0.41-11.94-0.62-17.91
				c-0.4-11.59-0.73-23.17-1.08-34.76c-0.7-23.48-0.8-46.98-0.86-70.47c-0.03-10.63,0.01-21.27,0.33-31.9
				c0.17-5.8,0.33-11.59,0.64-17.39c0.33-6.16,0.65-12.32,0.97-18.48c0.46-8.94,0.77-17.88,1.14-26.82
				c0.34-8.34,0.57-16.7,0.61-25.06c0.02-3.37-2.83-6.19-6.19-6.19c-3.39,0-6.17,2.81-6.19,6.19c-0.06,11.27-0.54,22.52-0.97,33.77
				c-0.22,5.87-0.45,11.73-0.75,17.59c-0.32,6.17-0.65,12.33-0.97,18.5c-0.31,5.79-0.47,11.57-0.65,17.36
				c-0.08,2.58-0.22,5.17-0.23,7.75c-0.02,2.77-0.03,5.54-0.05,8.31c-0.07,11.62-0.11,23.23-0.02,34.85
				c0.1,11.37,0.15,22.73,0.41,34.1c0.29,12.87,0.64,25.74,1.02,38.61c0.13,4.51,0.29,9.03,0.44,13.54
				c0.21,6.11,0.34,12.23,0.63,18.34c0.52,11.15,1.02,22.3,1.59,33.45c0.67,12.84,1.33,25.67,1.98,38.51
				c0.23,4.55,0.45,9.1,0.8,13.64c0.55,7.19,1.1,14.39,1.65,21.58c0.11,1.49,0.28,2.99,0.43,4.48c0.4,4.04,0.8,8.08,1.2,12.12
				c0.47,4.7,0.93,9.38,1.5,14.07c0.81,6.64,1.61,13.28,2.42,19.91c0.83,6.79,1.83,13.57,2.75,20.35c0.14,1,0.27,2,0.41,3
				c0.71,6.46,1.43,12.92,2.14,19.38c0.18,1.65,0.29,3.26,0.37,4.92c0.19,4.06,0.39,8.12,0.58,12.17
				c0.27,5.76,0.22,11.53,0.26,17.29c0.04,5.64,0,11.28-0.02,16.92c-0.03,11.07-0.28,22.13-0.67,33.19
				c-0.12,3.37,2.91,6.19,6.19,6.19c1.63,0,3.22-0.66,4.38-1.81c1.19-1.19,1.75-2.72,1.81-4.38c0.25-6.85,0.44-13.7,0.57-20.56
				c0.1-5.12,0.1-10.25,0.12-15.37c0.02-5.98,0.03-11.97-0.01-17.95c-0.02-3.27-0.04-6.54-0.06-9.81c-0.01-0.61-0.05-1.22-0.08-1.82
				c-0.09-1.91-0.18-3.83-0.27-5.74c-0.15-3.14-0.3-6.27-0.45-9.4c-0.05-1.09-0.13-2.16-0.25-3.24c-0.66-5.99-1.33-11.98-1.99-17.97
				c-0.44-4.02-1.03-8.03-1.57-12.04c-0.6-4.47-1.21-8.93-1.81-13.4c-0.78-6.47-1.57-12.94-2.36-19.41c-0.57-4.66-1.04-9.33-1.5-14
				c-0.4-4.07-0.81-8.15-1.21-12.23c-0.16-1.57-0.33-3.14-0.46-4.71c-0.54-7.11-1.08-14.23-1.63-21.34
				c-0.8-10.46-1.17-20.94-1.71-31.42c-0.58-11.32-1.19-22.64-1.72-33.96c-0.09-1.88-0.18-3.75-0.26-5.63
				c4.91-0.23,9.82-0.41,14.73-0.44c4.98-0.03,9.96-0.01,14.94-0.01c10.68,0,21.36,0,32.04,0c11.46,0,22.92-0.01,34.38-0.02
				c10.61-0.01,21.23-0.08,31.84-0.18c11.41-0.1,22.8-0.68,34.19-1.28c1.67-0.09,3.17-0.61,4.38-1.81c1.15-1.16,1.81-2.74,1.81-4.38
				c0-1.63-0.66-3.22-1.81-4.38C1980.22,1055.58,1978.65,1054.82,1977.13,1054.82z"/>
		</g>
		<path class="st0" d="M1426.07,1343.07c0.32-0.42,0.65-0.83,0.97-1.25c0.56-0.96,0.84-2.01,0.85-3.12
			c-0.48-4.1-0.88-8.2-1.26-12.31c-0.18-1.93-0.35-3.85-0.53-5.78c-0.07-0.73-0.15-1.45-0.18-2.18c-0.23-5.63-0.57-11.27-0.65-16.91
			c-0.17-12.14-0.29-24.28-0.31-36.42c-0.03-24.7-0.03-49.4-0.03-74.1c0-3.91-0.01-7.83-0.03-11.74c0.05-0.03,0.1-0.05,0.15-0.08
			c2.44-1.81,4.96-3.51,7.45-5.26c2.3-1.61,4.56-3.26,6.81-4.93c4.98-3.7,9.89-7.49,14.7-11.41c2-1.64,4.03-3.24,5.97-4.95
			c2.82-2.48,5.65-4.96,8.47-7.45c1.71-1.51,3.34-3.11,4.99-4.67c2.43-2.29,4.86-4.59,7.3-6.89c4.41-4.17,8.76-8.41,13.13-12.62
			c1.5-1.44,2.92-2.96,4.38-4.45c2.85-2.91,5.71-5.81,8.56-8.72c3.8-3.87,7.28-8.05,10.85-12.14c1.99-2.26,3.97-4.53,5.95-6.79
			c1.31-1.49,2.55-3.06,3.82-4.59c2.69-3.24,5.37-6.47,8.06-9.71c1.59-1.92,3.22-3.81,4.73-5.79c4.14-5.43,8.28-10.86,12.41-16.29
			c2.97-3.9,5.7-7.97,8.36-12.08c4.68-7.24,8.82-14.86,12.04-22.86c3.13-7.76,4.94-16.03,5.17-24.38
			c0.24-8.55-0.62-17.05-1.82-25.51c-0.56-3.92-1.32-7.8-2.33-11.64c-1.06-4.05-2.44-8.02-3.95-11.93
			c-3.01-7.77-6.88-15.21-11.11-22.37c-4.05-6.86-8.72-13.32-13.22-19.88c-1.28-1.87-2.73-3.62-4.13-5.4
			c-2.52-3.2-5.04-6.4-7.55-9.6c-0.57-0.72-1.14-1.44-1.7-2.16c-0.48-0.61-1.07-1.17-1.6-1.75c-2.75-3-5.49-6.01-8.24-9.01
			c-1.33-1.45-2.61-2.97-4.02-4.34c-2.53-2.47-5.07-4.94-7.6-7.4c-2.16-2.1-4.33-4.21-6.49-6.31c-0.41-0.4-0.86-0.77-1.29-1.15
			c-1.39-1.23-2.78-2.47-4.17-3.7c-2.83-2.51-5.66-5.03-8.49-7.54c-1.39-1.23-2.84-2.38-4.28-3.56c-3.14-2.57-6.29-5.14-9.43-7.7
			c-1.7-1.39-3.42-2.71-5.2-3.99c-4.88-3.51-9.69-7.14-14.73-10.41c-3.23-2.1-6.47-4.21-9.71-6.31c-1.83-1.19-3.74-2.27-5.64-3.35
			c-3.63-2.07-7.36-3.97-11.16-5.71c-3.8-1.74-7.7-3.13-11.8-3.95c-2.06-0.41-4.18-0.65-6.28-0.7c-2.35-0.06-4.66,0.24-6.98,0.57
			c-3.79,0.55-8.08,2.49-9.19,6.52c-0.57,2.1-0.52,4.21-0.51,6.36c0.03,5.59,0.04,11.18,0.16,16.76c0.25,12.07,0.73,24.12,1.1,36.19
			c0.34,10.95,0.94,21.89,1.34,32.84c0.43,11.81,0.84,23.62,1.21,35.43c0.2,6.49,0.41,12.98,0.61,19.48
			c0.07,2.34,0.26,4.69,0.39,7.03c0.22,4.02,0.45,8.03,0.67,12.04c0.31,5.48,0.75,10.96,1.14,16.44c0.35,4.91,0.71,9.82,1.14,14.72
			c0.57,6.54,1.15,13.09,1.72,19.63c0.57,6.52,1.3,13.02,1.95,19.53c1.12,11.23,2.06,22.47,3.06,33.71c0.17,1.89,0.2,3.81,0.3,5.71
			c0.22,4.21,0.44,8.41,0.66,12.62c0.24,4.54,0.5,9.06,0.58,13.6c0.22,12.61,0.43,25.21,0.59,37.82
			c0.17,12.79,0.26,25.58,0.34,38.36c0.14,22.6,0.03,45.2,0.05,67.8c0.01,11.56-0.05,23.13,0.11,34.69
			c0.05,3.72,0.1,7.45,0.15,11.17c0.03,2.22,0.02,4.45,0.11,6.67c0.15,3.71,0.3,7.43,0.45,11.14c0.09,2.11,0.18,4.2,0.37,6.3
			c0.54,5.91,1.07,11.82,1.75,17.71c0.07,0.55,0.15,1.1,0.22,1.64c0.29,1.05,0.82,1.96,1.59,2.73c1.15,1.15,2.74,1.81,4.38,1.81
			S1424.92,1344.23,1426.07,1343.07 M1430.99,1159.84c-2.03,1.51-4.11,2.95-6.19,4.39c-0.12-13.17-0.31-26.33-0.54-39.5
			c-0.12-7.06-0.24-14.12-0.37-21.18c-0.03-1.67-0.17-3.35-0.25-5.02c-0.22-4.15-0.43-8.29-0.65-12.44
			c-0.24-4.65-0.42-9.3-0.83-13.93c-0.67-7.54-1.34-15.08-2.01-22.62c-0.89-10.08-2.08-20.13-2.96-30.21
			c-0.63-7.22-1.27-14.45-1.9-21.67c-0.51-5.8-0.85-11.63-1.26-17.44c-0.37-5.15-0.69-10.29-0.97-15.44
			c-0.31-5.52-0.66-11.03-0.83-16.55c-0.38-11.97-0.71-23.95-1.15-35.92c-0.42-11.6-0.9-23.2-1.37-34.79
			c-0.25-6.3-0.51-12.59-0.71-18.89c-0.17-5.63-0.41-11.25-0.58-16.88c-0.17-5.89-0.33-11.77-0.41-17.65
			c-0.04-2.74-0.06-5.49-0.08-8.23c-0.01-1.79-0.05-3.58-0.05-5.37c0.17-0.03,0.34-0.06,0.51-0.09c1.96-0.18,3.93-0.21,5.89-0.05
			c3.12,0.53,6.13,1.4,9.08,2.56c3.76,1.65,7.42,3.54,11.01,5.53c2.27,1.26,4.53,2.56,6.71,3.97c3.67,2.39,7.34,4.77,11.01,7.16
			c2.19,1.42,4.27,3,6.39,4.53c2.78,2,5.56,3.99,8.34,5.99c4.61,3.77,9.22,7.53,13.84,11.3c1.68,1.37,3.26,2.88,4.89,4.32
			c2.94,2.61,5.88,5.22,8.82,7.83c1.26,1.12,2.45,2.28,3.66,3.46c2.94,2.86,5.88,5.72,8.82,8.58c1.32,1.28,2.68,2.53,3.92,3.88
			c2.52,2.75,5.04,5.51,7.56,8.26c1.66,1.81,3.32,3.63,4.98,5.44c0.91,0.99,1.69,2.09,2.52,3.15c2.9,3.68,5.79,7.36,8.69,11.04
			c2.97,4.34,5.95,8.67,8.93,13c2.09,3.05,4,6.21,5.86,9.4c3.08,5.27,5.88,10.72,8.31,16.32c1.65,4.05,3.07,8.18,4.26,12.38
			c1.28,4.52,2.1,9.15,2.76,13.8c0.55,4.36,0.97,8.72,1.14,13.1c0.16,4.38,0.19,8.8-0.27,13.16c-0.9,5.74-2.57,11.33-4.76,16.71
			c-3.2,7.23-7.22,14.11-11.54,20.72c-2.44,3.73-4.98,7.39-7.68,10.93c-3.74,4.91-7.48,9.82-11.22,14.72c-4.15,5-8.3,10-12.45,15
			c-3.25,3.92-6.61,7.73-9.96,11.55c-2.38,2.72-4.76,5.43-7.14,8.15c-1.12,1.27-2.33,2.45-3.52,3.66c-2.89,2.95-5.79,5.9-8.68,8.84
			c-1.28,1.3-2.53,2.62-3.84,3.88c-7.52,7.23-15.06,14.43-22.64,21.59c-3.32,3.14-6.81,6.1-10.24,9.12
			c-3.26,2.87-6.67,5.56-10.03,8.3C1438.17,1154.44,1434.6,1157.16,1430.99,1159.84 M1405.69,811.18c0.03-0.03,0.07-0.05,0.1-0.08
			C1405.75,811.13,1405.72,811.15,1405.69,811.18"/>
		<path class="st0" d="M76.4,1348.61c1.08-1.08,1.93-2.8,1.81-4.38c-0.3-4.06-0.55-8.11-0.8-12.17c-0.19-2.97-0.22-5.96-0.31-8.94
			c-0.08-2.58-0.1-5.15-0.11-7.74c-0.01-2.72-0.09-5.45-0.02-8.17c0.3-12.11,0.67-24.22,1.16-36.32c0.49-11.9,1.03-23.81,1.21-35.72
			c0.18-11.8,0.3-23.59,0.32-35.39c0.02-12.9-0.02-25.8-0.11-38.71c-0.02-2.45-0.14-4.9-0.22-7.34c-0.12-4.01-0.24-8.01-0.36-12.02
			c-0.05-1.7-0.15-3.4-0.26-5.1c-0.26-4.19-0.52-8.38-0.77-12.57c-0.34-5.61-0.79-11.2-1.21-16.8c-0.42-5.52-0.81-11.03-1.15-16.56
			c-0.35-5.64-0.71-11.28-1.04-16.92c-0.35-5.94-0.75-11.89-1.03-17.84c-0.29-6.32-0.67-12.63-0.88-18.95
			c-0.22-6.65-0.44-13.3-0.65-19.95c-0.08-2.33-0.07-4.68-0.1-7.01c-0.06-3.93-0.11-7.87-0.16-11.8c-0.09-6.04-0.07-12.09-0.1-18.13
			c-0.06-11.91-0.06-23.82-0.14-35.74c-0.04-6.02-0.18-12.04-0.29-18.06c-0.11-5.92-0.16-11.84-0.23-17.76
			c-0.1-8.72-0.09-17.44-0.11-26.16c-0.01-4.21,0.04-8.41,0.07-12.62c0.01-2.03,0.15-4.07,0.23-6.11c0.13-3.38,0.33-6.74,0.72-10.1
			c0.33-2.22,0.76-4.42,1.27-6.6c0.6-2.55,1.45-5.05,2.42-7.48c2.13-4.77,4.9-9.22,8.02-13.4c1.14-1.42,2.33-2.79,3.57-4.13
			c1.32-1.42,2.77-2.7,4.28-3.92c1.45-1.06,2.93-2.04,4.48-2.94c1.38-0.8,2.83-1.48,4.29-2.12c8.1-3.27,16.58-5.27,25.22-6.51
			c4.71-0.6,9.48-1,14.22-1.15c2.84-0.09,5.68-0.18,8.53-0.27c4.33-0.14,8.66-0.21,13-0.26c4.36-0.05,8.71-0.08,13.07-0.06
			c2.65,0.01,5.29,0.02,7.93,0.03c2.45,0.01,4.91,0.15,7.35,0.27c3.11,0.15,6.2,0.43,9.28,0.82c6.21,0.89,12.34,2.19,18.39,3.88
			c6.14,1.72,12.05,4.02,17.93,6.46c3.46,1.56,6.91,3.11,10.36,4.67c6.47,2.92,12.77,6.4,18.48,10.63c2.95,2.38,5.7,4.99,8.1,7.92
			c2.34,3.19,4.29,6.61,5.92,10.21c2.29,5.74,3.72,11.75,4.6,17.86c1.06,8.57,1.58,17.16,1.76,25.8c0.09,4.31,0.12,8.63-0.04,12.94
			c-0.15,4.19-0.54,8.39-1.06,12.55c-1.28,8.76-3.61,17.32-6.97,25.51c-4.82,11.05-11,21.54-18.3,31.13
			c-3.25,4.11-6.74,8.01-10.47,11.69c-3.71,3.65-7.66,7.06-11.74,10.27c-13.39,10.2-28.14,18.5-43.61,25.12
			c-5.61,2.32-11.31,4.49-17.1,6.31c-3.85,1.21-7.71,2.43-11.56,3.64c-5.39,1.7-10.88,3.09-16.33,4.6
			c-0.92,0.25-1.86,0.44-2.78,0.65c-2.18,0.51-4.36,1.01-6.54,1.53c-2.41,0.56-4.81,1.07-7.24,1.53c-2.84,0.54-5.68,1.12-8.53,1.6
			c-3.04,0.51-6.08,1.03-9.12,1.53c-3.86,0.64-7.72,1.28-11.58,1.92c-1.53,0.25-3.07,0.49-4.6,0.74c-1.89,0.3-3.8,0.51-5.68,0.88
			c-1.05,0.29-1.96,0.83-2.73,1.59c-0.76,0.77-1.3,1.68-1.59,2.73c-0.29,1.09-0.29,2.19,0,3.29c0.4,1.45,1.45,3.02,2.84,3.7
			c1.32,0.64,2.67,1.17,4.09,1.55c0.84,0.23,1.7,0.4,2.54,0.6c0.97,0.23,1.91,0.56,2.86,0.85c3.49,1.06,6.92,2.28,10.29,3.66
			c7.95,3.43,15.59,7.46,23.3,11.39c5.42,2.76,10.74,5.74,16.09,8.62c5.13,2.76,10.16,5.71,15.23,8.58c4.8,2.73,9.55,5.54,14.3,8.36
			c4.77,2.84,9.53,5.67,14.33,8.44c5.07,2.93,10.15,5.83,15.19,8.79c3.5,2.05,7,4.11,10.5,6.16c1.88,1.11,3.83,2.15,5.66,3.34
			c5.62,3.65,11.24,7.3,16.86,10.94c0.61,0.4,1.19,0.85,1.78,1.28c1.89,1.36,3.77,2.72,5.65,4.08c2.85,2.05,5.69,4.1,8.53,6.16
			c4.64,3.74,9.27,7.49,13.9,11.23c0.45,0.36,0.86,0.77,1.29,1.16c1.46,1.33,2.91,2.65,4.37,3.98c2.59,2.37,5.19,4.73,7.78,7.1
			c0.46,0.42,0.89,0.88,1.33,1.31c1.45,1.45,2.9,2.89,4.35,4.33c2,1.99,4.01,3.98,6.01,5.98c4.38,4.36,8.75,8.71,13.02,13.17
			c1.42,1.48,2.86,2.93,4.23,4.45c1.89,2.1,3.77,4.2,5.66,6.31c1.63,1.82,3.15,3.76,4.73,5.63c1.27,1.51,2.47,3.08,3.68,4.63
			c5.27,6.99,10.5,14.01,16.34,20.53c2.7,3.01,5.5,5.94,8.2,8.95c2.71,3.02,5.39,6.07,8.03,9.14c1.21,1.7,2.23,3.49,3.23,5.33
			c1.61,2.96,5.62,3.88,8.46,2.22c2.98-1.74,3.83-5.5,2.22-8.46c-0.95-1.74-1.93-3.44-3.02-5.09c-0.26-0.39-0.58-0.75-0.86-1.12
			c-0.53-0.69-1.03-1.32-1.59-1.97c-0.6-0.71-1.22-1.4-1.84-2.1c-2.74-3.12-5.48-6.25-8.28-9.33c-2.54-2.8-5.13-5.55-7.65-8.36
			c-2.49-2.78-4.78-5.76-7.08-8.71c-1.7-2.25-3.4-4.5-5.1-6.75c-0.91-1.21-1.85-2.41-2.79-3.6c-1-1.27-1.97-2.57-3.01-3.8
			c-1.77-2.11-3.49-4.27-5.32-6.31c-2.03-2.26-3.99-4.59-6.09-6.78c-2.4-2.51-4.8-5.01-7.2-7.52c-2.04-2.13-4.17-4.17-6.26-6.24
			c-4.44-4.43-8.89-8.86-13.34-13.29c-1.44-1.43-2.94-2.78-4.44-4.15c-3.01-2.75-6.03-5.5-9.04-8.25c-1.41-1.29-2.89-2.46-4.38-3.66
			c-3.21-2.59-6.42-5.18-9.62-7.78c-4.88-3.95-10.07-7.49-15.16-11.16c-1.62-1.17-3.22-2.4-4.9-3.49c-3.07-1.99-6.14-3.99-9.22-5.98
			c-2.49-1.62-4.98-3.23-7.47-4.85c-0.56-0.36-1.16-0.68-1.73-1.02c-1.68-0.98-3.35-1.97-5.03-2.95c-4.86-2.85-9.71-5.71-14.58-8.53
			c-5.2-3.01-10.44-5.96-15.6-9.03c-5.82-3.46-11.63-6.92-17.45-10.38c-2.05-1.22-4.15-2.36-6.23-3.54
			c-3.41-1.93-6.82-3.87-10.22-5.81c-4.83-2.74-9.75-5.3-14.64-7.93c-4.96-2.67-9.98-5.21-14.99-7.76
			c-3.64-1.85-7.29-3.64-11.01-5.33c-0.28-0.13-0.56-0.26-0.85-0.38c3.71-0.61,7.42-1.23,11.12-1.93c2.01-0.38,4.03-0.76,6.04-1.14
			c0.95-0.18,1.91-0.33,2.86-0.55c3.6-0.84,7.2-1.68,10.8-2.52c2.28-0.53,4.52-1.17,6.78-1.79c3.17-0.88,6.34-1.76,9.5-2.64
			c0.93-0.26,1.85-0.58,2.78-0.87c2.13-0.67,4.25-1.34,6.37-2.01c1.68-0.53,3.35-1.05,5.03-1.58c2.37-0.75,4.71-1.61,7.05-2.46
			c16.43-5.96,32.17-13.71,46.72-23.41c7.25-4.84,14.16-10.17,20.6-16.05c6.42-5.86,12.03-12.44,17.18-19.43
			c5.08-6.89,9.41-14.29,13.28-21.92c3.9-7.7,7.01-15.75,9.18-24.1c2.2-8.44,3.19-17.2,3.66-25.9c0.23-4.31,0.18-8.63,0.11-12.93
			c-0.08-4.68-0.24-9.36-0.54-14.03c-0.27-4.19-0.71-8.37-1.21-12.53c-0.55-4.63-1.33-9.2-2.51-13.71
			c-2.17-8.29-5.9-16.17-11.24-22.89c-5.07-6.37-11.68-11.19-18.6-15.36c-4.3-2.59-8.83-4.72-13.4-6.78
			c-3.48-1.57-6.95-3.17-10.47-4.65c-3.78-1.58-7.57-3.13-11.44-4.47c-4.19-1.46-8.48-2.64-12.8-3.68
			c-8.52-2.04-17.28-3.21-26.03-3.64c-4.23-0.2-8.45-0.23-12.68-0.24c-6.41-0.02-12.81,0.04-19.21,0.11
			c-5.79,0.07-11.57,0.31-17.35,0.49c-3.2,0.1-6.41,0.38-9.6,0.66c-4.72,0.42-9.42,1.12-14.07,1.99
			c-8.37,1.57-16.63,4.14-24.28,7.92c-3.67,1.81-6.97,4.32-10.09,6.95c-3.43,2.9-6.26,6.54-8.93,10.14
			c-4.93,6.64-8.7,14.14-10.87,22.13c-1.07,3.95-1.64,8.06-2.09,12.12c-0.26,2.29-0.41,4.58-0.49,6.88
			c-0.11,2.88-0.28,5.77-0.3,8.65c-0.08,12.36-0.03,24.73,0.03,37.09c0.03,5.48,0.09,10.97,0.19,16.45
			c0.11,5.92,0.28,11.84,0.32,17.76c0.09,12.13,0.1,24.25,0.15,36.38c0.03,6.28,0,12.57,0.09,18.85c0.09,6.56,0.18,13.11,0.28,19.66
			c0.03,2.24,0.14,4.48,0.21,6.71c0.14,4.05,0.27,8.11,0.4,12.16c0.2,5.93,0.53,11.86,0.8,17.79c0.52,11.25,1.26,22.48,1.96,33.72
			c0.35,5.6,0.69,11.2,1.12,16.8c0.45,5.83,0.95,11.66,1.31,17.49c0.25,4.04,0.5,8.08,0.74,12.12c0.14,2.29,0.35,4.58,0.42,6.86
			c0.2,6.78,0.4,13.56,0.6,20.33c0.06,2.1,0.04,4.2,0.05,6.29c0.03,4.16,0.05,8.31,0.08,12.46c0.04,5.89,0,11.79-0.01,17.68
			c-0.02,11.55-0.09,23.09-0.27,34.64c-0.18,11.87-0.62,23.73-1.11,35.59c-0.51,12.53-0.94,25.07-1.25,37.61
			c-0.06,2.29-0.07,4.57-0.06,6.87c0.02,2.97-0.05,5.95,0.05,8.92c0.11,3.47,0.22,6.93,0.33,10.4c0.1,3.05,0.38,6.11,0.57,9.16
			c0.09,1.35,0.19,2.7,0.29,4.06c0.13,1.69,0.59,3.15,1.81,4.38c1.16,1.15,2.74,1.81,4.38,1.81
			C73.67,1350.42,75.25,1349.76,76.4,1348.61"/>
		<path class="st0" d="M1204.46,1329.4c3.37,0,6.19-2.81,6.19-6.19c0-3.37-2.81-6.19-6.19-6.19c-21.21,0-42.42,0.02-63.63-0.03
			c-11.54-0.02-23.07-0.12-34.6-0.27c-10.86-0.14-21.73-0.49-32.59-0.75c-10.77-0.25-21.52-0.67-32.28-1.17
			c-11.27-0.52-22.54-1.07-33.8-1.77c-8.4-0.52-16.82-1.1-25.17-2.15c-4.18-0.59-8.38-1.32-12.35-2.75
			c-0.28-0.14-0.56-0.28-0.84-0.44c0-0.86,0.03-1.73,0.03-2.58v-3.8c0-2.77,0-5.54,0-8.31c0-5.52-0.01-11.05-0.02-16.57
			c-0.02-10.8-0.09-21.59-0.43-32.39c-0.33-10.64-0.98-21.27-1.51-31.9c-0.54-10.98-1.03-21.96-1.6-32.93
			c-0.29-5.52-0.53-11.05-0.9-16.57c-0.4-5.97-0.8-11.94-1.21-17.92c-0.79-11.53-1.59-23.05-2.4-34.57
			c-0.8-11.38-1.78-22.73-2.73-34.1c-0.45-5.39-1.04-10.78-1.57-16.16c-0.44-4.48-0.86-8.95-1.38-13.41
			c-0.73-6.36-1.47-12.71-2.2-19.07c-0.23-2.04-0.56-4.06-0.85-6.09c-0.54-3.77-1.08-7.53-1.62-11.29
			c-1.44-10.04-2.93-20.08-4.42-30.12c-0.74-5.78-1.48-11.55-2.22-17.33c-0.59-4.58-1.08-9.16-1.57-13.76
			c-0.55-5.16-1.2-10.32-1.62-15.49c-0.55-6.84-1.1-13.69-1.65-20.54c-0.43-5.46-0.72-10.93-1.07-16.39
			c-0.33-5.13-0.6-10.26-0.88-15.39c-0.29-5.3-0.59-10.59-0.92-15.88c-0.65-10.61-1.33-21.22-3.27-31.69
			c-1-5.39-2.84-10.52-4.85-15.6c-0.21-0.49-0.42-0.99-0.62-1.48c-0.55-0.93-1.29-1.67-2.22-2.22c-1.43-0.84-3.17-1.06-4.77-0.62
			c-1.55,0.43-2.89,1.46-3.7,2.84c-0.21,0.49-0.42,0.99-0.62,1.48c-0.29,1.1-0.29,2.19,0,3.29c1.44,3.64,2.83,7.31,3.85,11.09
			c0.97,3.59,1.54,7.31,2.05,10.99c1.09,8.67,1.5,17.41,2.04,26.14c0.33,5.36,0.61,10.71,0.9,16.07
			c0.54,10.02,1.13,20.05,1.93,30.05c0.51,6.39,1.02,12.78,1.54,19.17c0.17,2.12,0.45,4.25,0.68,6.37
			c0.43,3.98,0.85,7.97,1.28,11.95c0.49,4.55,1.06,9.09,1.64,13.63c0.72,5.64,1.36,11.3,2.2,16.92c2.18,14.73,4.32,29.46,6.44,44.2
			c0.69,5.99,1.38,11.97,2.07,17.96c0.51,4.42,0.95,8.83,1.38,13.25c0.55,5.62,1.17,11.25,1.64,16.88
			c0.56,6.65,1.12,13.3,1.68,19.96c0.82,9.8,1.46,19.62,2.13,29.43c0.84,12.27,1.68,24.55,2.51,36.82c0.37,5.45,0.61,10.9,0.9,16.36
			c0.29,5.48,0.54,10.97,0.81,16.45c0.5,10.5,1.04,20.99,1.57,31.49c0.28,5.58,0.57,11.15,0.75,16.74c0.17,5.4,0.31,10.8,0.36,16.2
			c0.09,11.01,0.12,22.01,0.13,33.01c0,5.35,0,10.7,0,16.05c0,1.01,0.05,2.1,0.28,3.08c0.22,0.94,0.65,1.8,1.08,2.66
			c0.15,0.2,0.31,0.4,0.46,0.6c0.4,0.66,0.9,1.24,1.48,1.73c0.7,0.66,1.61,1.27,2.43,1.79c0.66,0.42,1.39,0.72,2.1,1.03
			c1,0.43,1.99,0.83,3.02,1.18c1.96,0.67,4,1.12,6.03,1.52c5.52,1.09,11.15,1.71,16.76,2.19c3.4,0.29,6.8,0.58,10.2,0.86
			c2.45,0.21,4.91,0.31,7.37,0.46c5.7,0.35,11.4,0.67,17.1,0.96c10.96,0.55,21.93,1.07,32.9,1.46c10.75,0.39,21.5,0.62,32.25,0.88
			c11.07,0.27,22.13,0.48,33.2,0.54c11.18,0.06,22.37,0.09,33.55,0.1c7.9,0,15.8,0.01,23.7,0.01S1196.56,1329.4,1204.46,1329.4"/>
	</g>
	<g>
		<path class="st0" d="M365.1,610.77c1.08-1.08,1.94-2.81,1.81-4.38c-0.25-3.04-0.17-6.1-0.17-9.15v-8.67v-17.53
			c0-12.47,0-24.95,0-37.42c0-6.08,0.01-12.17,0.02-18.25c0.01-6.47-0.09-12.93-0.22-19.4c-0.05-2.74-0.13-5.48-0.26-8.22
			c-0.16-3.13-0.25-6.27-0.49-9.39c-0.26-3.4-0.47-6.82-0.79-10.22c-0.35-3.76-0.71-7.53-1.06-11.3c-0.24-2.56-0.52-5.13-0.78-7.69
			c-0.4-3.82-0.69-7.66-1.24-11.46c-0.48-3.31-0.97-6.62-1.45-9.93c-0.41-2.79-0.75-5.61-1.23-8.39
			c-2.31-13.35-4.62-26.69-6.91-40.04c-1.1-6.4-2.04-12.83-3.06-19.24c-0.87-5.49-1.84-10.96-2.77-16.44
			c-0.86-5.01-1.71-10.02-2.47-15.05c-0.98-6.49-1.97-12.98-2.95-19.47c-0.85-6.86-1.69-13.73-2.54-20.6
			c-0.71-5.77-1.32-11.57-1.95-17.35c-0.61-5.58-1.22-11.15-1.74-16.74c-0.43-4.63-0.85-9.25-1.28-13.88
			c-0.2-2.13-0.47-4.27-0.58-6.41c-0.41-7.73-0.83-15.47-1.25-23.21c-0.32-5.99-0.55-11.98-0.81-17.97
			c-0.52-11.98-0.98-23.96-1.39-35.94c-0.26-7.72-0.53-15.44-0.79-23.17c-0.22-6.52-0.59-13.04-0.88-19.56
			c-0.29-6.28-0.82-12.55-1.28-18.82c-0.12-1.59-0.23-3.19-0.35-4.78c-0.21-2.84-0.6-5.67-0.95-8.5
			c-1.16-9.29-2.73-18.52-5.04-27.59c-1.08-4.24-2.3-8.47-3.78-12.59c-0.79-2.19-1.73-4.33-2.68-6.45c-1.01-2.25-2.2-4.4-3.54-6.47
			c-1.14-1.76-2.48-3.41-3.86-4.99c-1.35-1.55-3.01-2.79-4.67-3.98c-1.66-1.19-3.66-1.99-5.61-2.57c-1.07-0.32-2.25-0.36-3.36-0.47
			c-1.42-0.13-2.87,0.2-4.26,0.39c-1.14,0.15-2.26,0.7-3.29,1.15c-0.91,0.39-1.78,0.82-2.64,1.29c-0.91,0.49-1.74,1.14-2.56,1.77
			c-0.95,0.73-1.85,1.46-2.73,2.27c-1.61,1.49-2.93,3.28-4.24,5.02c-1.42,1.88-2.63,3.95-3.78,6c-2.09,3.72-3.81,7.64-5.45,11.57
			c-0.83,1.99-1.63,3.98-2.38,5.99c-0.77,2.06-1.53,4.11-2.3,6.17c-0.45,1.2-0.95,2.39-1.34,3.61c-1.12,3.46-2.23,6.93-3.35,10.39
			c-0.71,2.2-1.44,4.4-2.08,6.62c-1.22,4.2-2.45,8.4-3.67,12.61c-1.76,6.06-3.41,12.15-5.09,18.23c-0.51,1.85-1.01,3.69-1.52,5.54
			c-0.2,0.71-0.42,1.42-0.59,2.14l-2.12,9.06c-1.01,4.32-2.03,8.65-3.04,12.97c-0.36,1.55-0.72,3.09-1.03,4.65
			c-1.55,7.83-3.1,15.66-4.66,23.49c-1.19,5.99-2.24,12-3.36,18.01c-0.58,3.11-1.16,6.21-1.73,9.32c-0.42,2.23-0.72,4.49-1.08,6.73
			c-0.72,4.51-1.44,9.01-2.17,13.52c-0.29,1.83-0.61,3.65-0.86,5.48l-3.08,22.47c-0.34,2.52-0.59,5.04-0.85,7.57
			c-0.47,4.53-0.93,9.05-1.4,13.58c-0.62,5.97-1.03,11.96-1.5,17.94c-0.46,5.89-0.89,11.77-1.26,17.66
			c-0.4,6.36-0.77,12.72-1.27,19.08c-0.22,2.85-0.42,5.7-0.64,8.55c-1.13-5.77-2.23-11.54-3.3-17.32
			c-1.09-5.88-2.33-11.74-3.52-17.61c-0.64-3.17-1.43-6.32-2.14-9.47c-0.67-2.98-1.4-5.95-2.02-8.93c-2.79-13.4-5.54-26.8-8.26-40.2
			c-2.35-11.55-4.52-23.14-6.92-34.68c-1.25-6-2.43-12.02-3.78-18c-1.66-7.37-3.33-14.74-4.99-22.11c-0.51-2.26-1.14-4.5-1.72-6.75
			c-1.14-4.44-2.27-8.89-3.41-13.33c-0.45-1.76-0.87-3.53-1.39-5.27c-1.16-3.87-2.31-7.75-3.47-11.62c-0.97-3.25-1.94-6.5-2.91-9.75
			c-0.15-0.5-0.34-0.98-0.51-1.48c-0.63-1.77-1.25-3.54-1.87-5.3c-1.5-4.24-3-8.48-4.49-12.72c-0.58-1.64-1.17-3.27-1.8-4.9
			c-1.59-4.02-3.17-8.04-4.76-12.06c-1.19-3.03-2.34-6.07-3.62-9.06c-1.28-3.02-2.56-6.04-3.84-9.05c-1.35-3.18-2.66-6.38-4.08-9.54
			c-1.83-4.09-3.68-8.18-5.69-12.18c-2.01-4-4.09-8-6.62-11.69c-1.14-1.67-2.42-3.27-3.69-4.85c-1.23-1.52-2.77-2.74-4.4-3.81
			c-0.95-0.63-2.11-0.97-3.16-1.39c-1.09-0.43-2.33-0.44-3.48-0.59c-0.28,0.02-0.57,0.03-0.85,0.05c-0.81-0.01-1.58,0.15-2.32,0.46
			c-0.77,0.23-1.48,0.58-2.13,1.04c-0.65,0.47-1.27,0.96-1.86,1.49c-0.18,0.18-0.36,0.36-0.54,0.55c-0.48,0.61-0.96,1.23-1.44,1.85
			c-0.4,0.67-0.75,1.35-1.09,2.06c-1,2.08-1.77,4.25-2.5,6.43c-0.82,2.47-1.43,4.99-2.04,7.51c-0.34,1.41-0.74,2.82-1.03,4.25
			c-0.39,1.89-0.77,3.78-1.15,5.67c-0.24,1.2-0.53,2.39-0.72,3.6c-0.3,1.87-0.6,3.74-0.91,5.6c-0.51,3.19-1.03,6.36-1.39,9.57
			c-0.44,3.88-0.87,7.76-1.31,11.64c-0.36,3.16-0.58,6.35-0.87,9.51c-0.61,6.72-1.24,13.44-1.86,20.16
			c-0.6,6.44-1.31,12.86-1.99,19.29c-1.32,12.47-2.84,24.93-4.32,37.38c-1.28,10.8-2.56,21.6-3.83,32.41
			c-1.67,12.19-3.35,24.39-5.06,36.58c-1.77,12.63-3.4,25.27-5.06,37.92c-0.92,6.78-1.84,13.57-2.76,20.35
			c-0.32,2.32-0.68,4.64-0.93,6.97c-0.37,3.39-0.74,6.77-1.12,10.16c-0.49,4.44-0.97,8.88-1.46,13.32c-0.18,1.6-0.37,3.18-0.44,4.79
			c-0.36,8.08-0.72,16.15-1.08,24.23c-0.07,1.57-0.09,3.13-0.1,4.7c-0.02,4.39-0.04,8.79-0.07,13.18
			c-0.03,5.46-0.05,10.92-0.02,16.38c0.04,6.58-0.02,13.17,0.11,19.74c0.15,7.71,0.31,15.41,0.46,23.11
			c0.03,1.66,0.11,3.31,0.21,4.97c0.25,4.48,0.49,8.96,0.74,13.44c0.15,2.66,0.23,5.32,0.44,7.97c0.23,3.04,0.47,6.08,0.7,9.12
			c0.99,12.85,1.99,25.7,2.87,38.55c0.47,6.88,0.94,13.76,1.41,20.64c0.43,6.32,0.76,12.64,1.14,18.97
			c0.2,3.42,0.23,6.85,0.35,10.27c0.09,2.56,0.21,5.12,0.22,7.69c0.01,3.97,0.02,7.95,0.03,11.92c0.01,3.3-0.1,6.6-0.15,9.9
			c-0.12,7.6-0.56,15.19-1.21,22.77c-0.13,1.56,0.74,3.3,1.81,4.38c1.16,1.15,2.74,1.81,4.38,1.81c1.63,0,3.22-0.66,4.38-1.81
			c0.32-0.42,0.64-0.84,0.97-1.25c0.56-0.96,0.84-2.01,0.84-3.12c0.18-2.07,0.33-4.15,0.48-6.22c0.11-1.65,0.28-3.31,0.35-4.97
			c0.12-3.19,0.3-6.38,0.35-9.57c0.06-3.69,0.11-7.38,0.17-11.06c0.05-3.13-0.01-6.26-0.01-9.39c-0.01-2.5-0.02-4.99-0.1-7.49
			c-0.15-4.23-0.29-8.45-0.44-12.68c-0.08-2.32-0.25-4.64-0.39-6.96c-0.25-4.12-0.49-8.25-0.74-12.37
			c-0.77-12.89-1.77-25.78-2.71-38.66c-0.42-5.76-0.86-11.53-1.3-17.29c-0.45-5.86-0.93-11.71-1.25-17.57
			c-0.25-4.58-0.5-9.17-0.75-13.75c-0.12-2.2-0.31-4.41-0.35-6.62c-0.15-7.64-0.3-15.29-0.46-22.93c-0.12-5.93-0.1-11.86-0.13-17.79
			c-0.03-5.45-0.05-10.89-0.02-16.34c0.03-6.63,0.07-13.25,0.1-19.88c0.01-2.29,0.2-4.6,0.31-6.9c0.2-4.49,0.4-8.99,0.6-13.48
			c0.1-2.3,0.2-4.6,0.31-6.9c0.03-0.7,0.15-1.4,0.23-2.09c0.19-1.73,0.38-3.46,0.57-5.2c0.74-6.7,1.48-13.4,2.2-20.09
			c2.33-17.2,4.61-34.4,6.87-51.6c1.82-12.96,3.62-25.92,5.4-38.88c0.83-6.02,1.62-12.03,2.33-18.06
			c0.73-6.16,1.45-12.32,2.19-18.48c0.78-6.6,1.58-13.19,2.35-19.79c0.77-6.65,1.6-13.3,2.31-19.96c0.69-6.49,1.46-12.97,2.07-19.46
			c0.57-6.13,1.15-12.26,1.71-18.4c0.47-5.15,0.93-10.29,1.4-15.43c0.2-2.14,0.48-4.28,0.72-6.42c0.25-2.22,0.5-4.43,0.75-6.65
			c0.42-2.59,0.84-5.18,1.26-7.77c0.38-2.35,0.82-4.66,1.3-7c0.49-2.41,0.97-4.82,1.55-7.21c1.06-4.34,2.1-8.67,3.7-12.85
			c0.16-0.34,0.32-0.67,0.48-1c0.63,0.6,1.21,1.23,1.77,1.91c1.51,2.02,2.89,4.09,4.16,6.28c1.76,3.06,3.36,6.22,4.92,9.39
			c2.06,4.19,3.99,8.46,5.82,12.76c2.08,4.89,4.16,9.79,6.24,14.69c2.6,6.6,5.21,13.2,7.81,19.8c0.65,1.65,1.23,3.31,1.82,4.98
			c1.51,4.27,3.02,8.55,4.53,12.83c0.75,2.13,1.6,4.24,2.24,6.39c1.01,3.4,2.03,6.79,3.05,10.19c1.13,3.77,2.25,7.54,3.38,11.31
			c0.54,1.81,0.97,3.65,1.43,5.48c1.14,4.46,2.28,8.92,3.42,13.38c0.54,2.12,1.13,4.23,1.61,6.36c1.68,7.43,3.36,14.87,5.03,22.3
			c1.37,6.06,2.56,12.16,3.83,18.24c1.14,5.46,2.24,10.92,3.32,16.4c2.5,12.74,5,25.48,7.65,38.19c1.37,6.59,2.74,13.18,4.11,19.77
			c0.66,3.17,1.43,6.31,2.14,9.47c0.67,2.97,1.42,5.94,2.02,8.93c1.03,5.12,2.06,10.24,3.09,15.36c0.89,4.44,1.66,8.9,2.49,13.35
			c0.8,4.33,1.64,8.68,2.63,12.98c0.54,2.37,1.06,4.75,1.64,7.12c0.37,1.49,0.74,2.99,1.11,4.49c0.21,0.85,0.42,1.7,0.63,2.55
			c0.38,1.53,0.89,3,1.43,4.48c0.57,1.56,1.37,2.83,2.84,3.7c0.49,0.21,0.98,0.42,1.48,0.62c1.1,0.29,2.19,0.29,3.29,0
			c1.04-0.18,1.72-0.33,2.73-0.85c0.85-0.44,1.57-1,2.18-1.74c0.96-1.16,1.39-1.94,1.93-3.35c0.29-0.74,0.49-1.46,0.66-2.24
			c0.17-0.8,0.27-1.63,0.4-2.43c0.16-0.98,0.38-1.95,0.55-2.93c0.48-2.72,0.77-5.48,1.04-8.23c0.42-4.17,0.73-8.34,1.06-12.52
			c0.49-6.3,0.96-12.6,1.36-18.91c0.39-6.16,0.73-12.33,1.21-18.48c0.35-4.5,0.7-9,1.05-13.5c0.19-2.4,0.32-4.8,0.56-7.19
			c0.79-7.61,1.57-15.22,2.36-22.83c0.91-6.63,1.82-13.26,2.73-19.9c0.82-5.95,1.85-11.88,2.8-17.81c0.49-3.07,0.98-6.13,1.47-9.2
			c0.37-2.3,0.85-4.59,1.28-6.88c1.22-6.57,2.37-13.16,3.67-19.72c1.5-7.56,3-15.12,4.49-22.68c1.1-5.56,2.46-11.06,3.76-16.58
			c0.87-3.72,1.74-7.43,2.61-11.15c0.46-1.96,1.04-3.88,1.57-5.82c1.71-6.2,3.35-12.42,5.15-18.6c1.4-4.82,2.81-9.65,4.21-14.47
			c0.89-3.06,1.9-6.08,2.88-9.12c1.04-3.22,2-6.48,3.18-9.65c1.72-4.61,3.38-9.23,5.25-13.78c2.29-5.31,4.85-10.54,8.26-15.23
			c1.05-1.25,2.16-2.41,3.39-3.49c1.04-0.73,2.11-1.36,3.25-1.92c0.39-0.12,0.77-0.22,1.15-0.31c0.39-0.01,0.78-0.01,1.17,0
			c0.33,0.08,0.65,0.18,0.97,0.28c0.69,0.36,1.34,0.75,1.98,1.18c1.04,0.9,1.97,1.88,2.86,2.94c2.09,2.88,3.72,5.99,5.16,9.24
			c2.33,5.79,3.95,11.87,5.41,17.93c1.6,6.64,2.76,13.39,3.69,20.16c0.4,2.97,0.82,5.95,1.03,8.94c0.11,1.44,0.21,2.87,0.32,4.31
			c0.33,4.47,0.66,8.94,0.99,13.41c0.46,6.32,0.65,12.67,0.94,19c0.53,11.55,0.83,23.11,1.26,34.67c0.54,14.6,1.13,29.19,1.76,43.78
			c0.25,5.8,0.59,11.6,0.9,17.4c0.2,3.7,0.4,7.4,0.6,11.09c0.1,1.92,0.33,3.84,0.51,5.76c0.42,4.62,0.85,9.23,1.28,13.85
			c0.21,2.27,0.38,4.54,0.63,6.81c0.83,7.56,1.66,15.12,2.49,22.67c0.65,5.96,1.44,11.91,2.17,17.86c0.38,3.09,0.76,6.18,1.14,9.27
			c0.34,2.76,0.8,5.5,1.22,8.25c0.69,4.53,1.37,9.07,2.06,13.61c0.29,1.89,0.55,3.79,0.87,5.67c1.28,7.51,2.56,15.02,3.84,22.52
			c1.09,6.38,2.04,12.79,3.05,19.18c0.99,6.23,2.09,12.44,3.16,18.66c1.29,7.55,2.61,15.09,3.92,22.63
			c1.11,6.38,1.95,12.8,2.87,19.2c0.61,5.84,1.25,11.68,1.8,17.54c0.34,3.63,0.68,7.26,1.02,10.89c0.33,3.49,0.54,6.99,0.81,10.48
			c0.24,3.12,0.33,6.26,0.48,9.38c0.14,2.74,0.2,5.49,0.25,8.24c0.13,6.49,0.22,12.98,0.21,19.48c-0.03,24.34-0.02,48.67-0.02,73.01
			v8.47c0,3.05-0.08,6.11,0.17,9.15c0.07,0.55,0.15,1.1,0.22,1.65c0.29,1.05,0.82,1.96,1.59,2.73c1.15,1.16,2.74,1.81,4.38,1.81
			C362.35,612.58,363.94,611.93,365.1,610.77 M112.67,27.15c-0.05-0.02-0.1-0.04-0.15-0.07c0,0,0,0,0,0
			C112.56,27.11,112.61,27.13,112.67,27.15 M110.74,26.71c0.05-0.01,0.09-0.01,0.14-0.02C110.83,26.69,110.79,26.7,110.74,26.71"/>
		<path class="st0" d="M925.02,553.46c-0.79-4.05-1.44-8.11-2.16-12.17c-0.69-3.86-1.64-7.66-2.45-11.49
			c-0.83-3.94-1.65-7.89-2.26-11.87c-0.59-3.84-1.16-7.67-1.72-11.51c-0.02-0.37-0.07-0.74-0.16-1.1c-0.01-0.04-0.01-0.09-0.02-0.13
			c0-0.01,0-0.01,0-0.02c-0.12-0.88-0.24-1.77-0.36-2.65c-0.23-1.73-0.46-3.46-0.7-5.19c0-0.03-0.01-0.07-0.01-0.1v0
			c0-0.01,0-0.02,0-0.03c-0.01-0.46-0.06-0.92-0.18-1.38c-0.01-0.04-0.01-0.07-0.02-0.11c-0.34-2.63-0.65-5.27-0.97-7.91
			c-0.32-2.61-0.65-5.22-0.98-7.82c-0.35-2.82-0.68-5.65-1.13-8.46c-0.59-3.64-1.17-7.27-1.76-10.91c-0.38-2.33-0.86-4.64-1.3-6.96
			c-0.52-2.74-0.96-5.52-1.57-8.24c-0.73-3.25-1.46-6.5-2.18-9.75c-1.31-5.84-2.64-11.68-3.97-17.51c-1.3-5.7-2.83-11.35-4.27-17.01
			c-1.43-5.61-3.08-11.17-4.65-16.75c-3.16-11.24-6.33-22.47-9.44-33.73c-1.53-5.55-3.07-11.1-4.61-16.65
			c-1.56-5.62-3.24-11.2-4.87-16.79c-6.49-22.26-14.17-44.14-21.71-66.06c-3.5-10.17-7.22-20.26-10.85-30.38
			c-1.85-5.16-3.67-10.34-5.6-15.48c-1.39-3.71-2.78-7.42-4.18-11.13c-0.8-2.12-1.54-4.27-2.39-6.37
			c-1.36-3.38-2.72-6.75-4.08-10.13c-1.44-3.57-2.82-7.17-4.34-10.7c-2.65-6.16-5.31-12.32-7.96-18.49
			c-2.28-5.46-4.57-10.91-6.85-16.37c-0.75-1.79-1.41-3.61-2.09-5.42c-1.38-3.62-2.76-7.24-4.14-10.86
			c-2.05-5.39-3.87-10.87-5.78-16.31c-1.82-5.17-3.57-10.37-5.36-15.56c-0.94-2.73-1.99-5.44-2.99-8.15
			c-0.84-2.29-1.65-4.58-2.58-6.83c-1.53-3.75-3.01-7.52-4.67-11.21c-1.43-3.16-2.96-6.39-5.04-9.17c-1.16-1.55-2.2-3.11-4-3.99
			c-0.49-0.21-0.98-0.42-1.48-0.62c-1.1-0.3-2.19-0.3-3.29,0c-1.33,0.27-2.67,1.01-3.65,1.98c-1.47,1.48-2.05,3.61-2.69,5.53
			c-0.23,0.7-0.43,1.41-0.65,2.11c-0.35,1.14-0.66,2.29-0.99,3.44c-0.87,3.05-1.77,6.09-2.67,9.13c-1.59,5.35-3.31,10.66-4.98,15.99
			c-1.79,5.72-3.42,11.5-5.14,17.24c-0.67,2.23-1.35,4.46-2.05,6.68c-0.91,2.89-1.76,5.81-2.73,8.68
			c-3.68,10.95-7.25,21.95-11.32,32.76c-2.13,5.66-4.28,11.3-6.47,16.93c-1.01,2.6-2.1,5.19-3.05,7.82
			c-1.06,2.96-2.12,5.92-3.18,8.89c-0.85,2.36-1.78,4.72-2.54,7.11c-1.02,3.22-2.03,6.43-3.05,9.65c-0.7,2.22-1.45,4.44-2.1,6.68
			c-0.96,3.32-1.92,6.64-2.88,9.96c-3.07,10.6-5.9,21.27-8.67,31.95c-1.37,5.28-2.79,10.54-4.02,15.85
			c-0.92,3.98-1.85,7.96-2.77,11.94c-0.44,1.88-0.91,3.77-1.31,5.66c-1.46,6.86-2.92,13.72-4.38,20.57
			c-1.1,5.17-1.98,10.38-2.94,15.58c-0.88,4.75-1.78,9.5-2.59,14.26c-1.18,6.9-2.37,13.79-3.55,20.68
			c-1.8,10.49-3.45,20.99-5.33,31.47l-2.22,12.35c-0.38,2.11-0.72,4.24-1.14,6.35c-1.29,6.5-2.59,13-3.89,19.5
			c-0.89,4.46-1.73,8.91-2.54,13.39c-0.74,4.1-1.49,8.2-2.23,12.3c-0.35,1.95-0.77,3.9-1.06,5.86c-1.01,6.66-2.02,13.33-3.02,19.99
			c-0.72,4.79-1.37,9.6-2.03,14.4c-0.72,5.27-1.39,10.55-2.19,15.81c-0.97,6.44-1.94,12.88-2.91,19.31c-0.12,0.8-0.33,1.6-0.5,2.39
			c-0.41,1.98-0.82,3.96-1.23,5.94c-0.64,3.09-1.28,6.18-1.92,9.27c-0.15,0.7-0.36,1.39-0.55,2.07c-0.54,2.01-1.07,4.03-1.6,6.05
			c-0.64,2.4-1.19,4.85-1.96,7.21c-2.24,6.86-4.54,13.7-6.71,20.57c-1.02,3.21,1.16,6.74,4.32,7.61c0.54,0.15,1.08,0.22,1.63,0.22
			c1.09,0,2.18-0.29,3.13-0.84c1.43-0.84,2.35-2.14,2.84-3.7c2.04-6.43,4.19-12.82,6.28-19.22c0.71-2.18,1.29-4.38,1.88-6.59
			c0.88-3.31,1.76-6.61,2.64-9.92c0.16-0.59,0.26-1.2,0.38-1.8c0.39-1.87,0.78-3.73,1.16-5.6c0.69-3.35,1.39-6.7,2.09-10.06
			c0.41-1.98,0.62-4.01,0.92-6c0.61-4.06,1.22-8.11,1.84-12.16c1.51-10.04,2.68-20.12,4.2-30.16c1.06-7.01,2.12-14.03,3.18-21.05
			c0.23-1.55,0.55-3.09,0.83-4.63c0.73-4.01,1.46-8.02,2.19-12.04c0.82-4.54,1.65-9.08,2.55-13.61c1.39-6.96,2.78-13.93,4.17-20.89
			c0.33-1.64,0.6-3.29,0.89-4.93c0.73-4.07,1.46-8.13,2.19-12.2c0.82-4.59,1.63-9.18,2.4-13.78c2.14-12.86,4.32-25.72,6.52-38.57
			c0.8-4.66,1.64-9.3,2.51-13.95c0.74-4.01,1.49-8.03,2.24-12.04c0.28-1.5,0.54-3.01,0.86-4.51c1.48-6.95,2.95-13.9,4.43-20.85
			c1.19-5.59,2.56-11.14,3.86-16.71c1.21-5.21,2.56-10.37,3.9-15.54c1.36-5.23,2.73-10.46,4.13-15.67
			c2.97-11.05,5.99-22.08,9.44-32.99c1.14-3.6,2.28-7.21,3.41-10.81c0.63-1.99,1.38-3.95,2.08-5.91c1.24-3.45,2.47-6.9,3.71-10.35
			c0.77-2.14,1.64-4.23,2.46-6.35c2.2-5.63,4.37-11.27,6.5-16.92c0.93-2.46,1.92-4.9,2.77-7.39l3.46-10.1
			c3.51-10.26,6.99-20.52,10.09-30.91c2.66-8.91,5.29-17.81,8.06-26.68c1.27-4.07,2.53-8.14,3.74-12.22
			c0.17-0.57,0.34-1.14,0.5-1.71c0.23,0.5,0.46,1,0.68,1.5c1.09,2.67,2.19,5.34,3.28,8.01c0.98,2.41,1.82,4.88,2.71,7.32
			c0.87,2.36,1.77,4.72,2.59,7.1c1.19,3.47,2.38,6.94,3.58,10.41c1.93,5.62,3.92,11.23,5.9,16.83c1.93,5.48,4.07,10.89,6.14,16.33
			c2.7,7.08,5.75,14.04,8.67,21.03c2.79,6.67,5.7,13.3,8.57,19.94c2.35,5.83,4.7,11.66,7.05,17.5c2.1,5.21,3.98,10.52,5.96,15.78
			c3.7,9.88,7.21,19.83,10.78,29.76c1.92,5.34,3.9,10.67,5.74,16.04c1.92,5.59,3.86,11.17,5.77,16.76c1.93,5.67,3.92,11.32,5.8,17
			c1.1,3.32,2.19,6.64,3.29,9.96c0.73,2.2,1.5,4.4,2.18,6.62c0.81,2.64,1.64,5.28,2.47,7.93c-1.2-0.12-2.4-0.2-3.63-0.21
			c-1.27-0.01-2.54-0.01-3.81-0.02c-2.8-0.02-5.59-0.04-8.39-0.07c-5-0.05-10.01-0.1-15.02-0.28c-10.62-0.38-21.24-0.98-31.86-1.06
			c-11.34-0.08-22.69-0.08-34.03-0.1c-4.77-0.01-9.54-0.01-14.3-0.09c-5.33-0.08-10.66-0.09-15.99-0.31
			c-1.69-0.07-3.37-0.14-5.06-0.21c-0.77-0.03-1.55-0.03-2.31-0.1c-2.21-0.21-4.42-0.42-6.63-0.63c-2.63-0.43-5.26-0.86-7.88-1.36
			c-0.55-0.07-1.1-0.15-1.65-0.22c-1.12,0-2.16,0.28-3.12,0.84c-1.38,0.81-2.42,2.15-2.84,3.7c-0.44,1.6-0.21,3.34,0.62,4.77
			c0.76,1.29,2.18,2.55,3.7,2.84c1.75,0.34,3.51,0.64,5.27,0.93c1.73,0.29,3.48,0.64,5.23,0.81c1.5,0.14,3,0.28,4.49,0.42
			c1.02,0.1,2.05,0.24,3.07,0.28c3.13,0.13,6.26,0.26,9.4,0.38c2.44,0.1,4.89,0.08,7.33,0.12c10.92,0.16,21.83,0.18,32.75,0.21
			c10.52,0.02,21.05-0.04,31.56,0.28c10.44,0.32,20.86,0.9,31.31,1.06c3.71,0.05,7.42,0.1,11.13,0.13c0.94,0.01,1.88,0,2.82,0
			c2.47-0.01,4.95-0.02,7.41,0.18c0.35,0.05,0.71,0.09,1.06,0.14c1.03,0,2-0.26,2.91-0.74c1.39,4.71,2.81,9.41,4.12,14.14
			c3.1,11.22,6.14,22.47,9.31,33.68c1.57,5.55,3.16,11.1,4.72,16.66c0.92,3.26,1.83,6.52,2.75,9.79c0.63,2.26,1.31,4.5,1.9,6.77
			c0.86,3.36,1.72,6.71,2.58,10.07c0.57,2.24,1.2,4.47,1.71,6.73c1.25,5.52,2.52,11.03,3.76,16.55c0.92,4.13,1.85,8.27,2.78,12.4
			c0.66,2.95,1.16,5.93,1.72,8.9c0.53,2.76,1.07,5.51,1.52,8.28c0.57,3.54,1.14,7.07,1.71,10.61c0.68,5.41,1.36,10.82,2.03,16.23
			l0.6,4.85c0.01,0.12,0.03,0.24,0.05,0.36c0.01,0.5,0.07,0.99,0.19,1.46l0.24,1.76c0.25,1.84,0.49,3.69,0.74,5.53
			c0.04,0.32,0.08,0.64,0.12,0.95c0.02,0.38,0.07,0.76,0.16,1.13c0.02,0.14,0.04,0.28,0.06,0.42c0.1,0.71,0.21,1.43,0.31,2.15
			c0.45,3.04,0.89,6.08,1.36,9.12c0.44,2.87,0.96,5.72,1.49,8.58c0.87,4.72,2.06,9.38,3.04,14.08c0.99,4.75,1.64,9.56,2.57,14.32
			c0.29,1.52,1.55,2.94,2.84,3.7c1.43,0.84,3.17,1.06,4.77,0.62c1.55-0.43,2.89-1.46,3.7-2.84c0.21-0.49,0.42-0.99,0.62-1.48
			C925.31,555.65,925.31,554.56,925.02,553.46z"/>
		<path class="st0" d="M1198.56,76.75c1.15,1.95,3.24,3.04,5.38,3.04c1.06,0,2.12-0.27,3.09-0.82c0.45-0.26,0.9-0.49,1.36-0.72
			c3.37-1.27,6.91-2.05,10.41-2.88c3.43-0.82,6.91-1.35,10.38-1.89c1.11-0.13,2.23-0.25,3.34-0.37c1.05-0.12,2.11-0.28,3.17-0.35
			c2.68-0.18,5.37-0.44,8.06-0.54c2.73-0.1,5.46-0.2,8.19-0.3c1.78-0.07,3.57-0.06,5.36-0.06c0.86,0,1.72,0,2.58,0
			c6.82-0.05,13.64-0.04,20.45-0.03c4.67,0.01,9.35,0.01,14.02,0c13.16-0.03,26.32-0.13,39.48-0.34c2.56-0.04,5.11-0.12,7.67-0.19
			v8.07c0,5.25,0.05,10.51,0,15.76c-0.03,3.09-0.05,6.18-0.08,9.27c-0.02,2.47-0.19,4.95-0.29,7.42c-0.09,2.2-0.15,4.41-0.33,6.6
			c-0.3,3.6-0.6,7.2-0.9,10.8c-0.17,2.08-0.46,4.14-0.71,6.21c-0.33,2.66-0.65,5.32-0.98,7.98c-1.69,11.84-3.42,23.67-4.83,35.55
			c-1.3,11.01-2.49,22.03-3.73,33.05c-1.23,10.9-2.47,21.79-3.43,32.72c-0.47,5.37-0.93,10.74-1.32,16.12
			c-0.39,5.45-0.78,10.89-1.18,16.34c-0.79,10.93-1.47,21.86-2.01,32.8c-0.55,11.02-1.06,22.05-1.57,33.07
			c-0.26,5.66-0.53,11.31-0.81,16.97c-0.28,5.73-0.63,11.45-1,17.17c-0.13,2-0.23,4.01-0.43,6.01c-0.36,3.65-0.72,7.3-1.08,10.95
			c-0.53,5.3-1.12,10.59-1.69,15.89c-1.17,10.84-2.16,21.68-2.91,32.55c-0.75,10.83-0.86,21.68-0.97,32.53
			c-0.11,10.46-0.07,20.93-0.07,31.39c0,5.33,0,10.67,0,16c0,5.33,0.08,10.66-0.13,15.99c-0.21,5.27-0.57,10.56-1.17,15.81
			c-0.29,2.55-0.64,5.1-0.9,7.66c-0.2,2.01-0.3,4.03-0.51,6.04c-0.02,0.13-0.05,0.26-0.07,0.39c-0.29,1.1-0.29,2.19,0,3.29
			c0.21,0.49,0.41,0.99,0.62,1.48c0.81,1.38,2.15,2.42,3.7,2.84c0.53,0.15,1.08,0.22,1.63,0.22c1.09,0,2.18-0.29,3.13-0.84
			c1.28-0.75,2.56-2.19,2.84-3.7c0.45-2.45,0.57-4.88,0.79-7.35c0.45-5,1.24-9.96,1.62-14.96c0.21-2.72,0.47-5.46,0.58-8.18
			c0.11-2.78,0.2-5.54,0.22-8.31c0.09-10.48,0.01-20.97,0.01-31.45c0-11.02,0.03-22.04,0.14-33.06c0.05-5.03,0.17-10.06,0.37-15.09
			c0.1-2.57,0.15-5.15,0.33-7.72c0.23-3.33,0.46-6.66,0.69-10c0.33-4.76,0.77-9.52,1.27-14.26c0.6-5.83,1.21-11.66,1.84-17.48
			c0.63-5.84,1.22-11.68,1.8-17.53c0.2-1.96,0.4-3.92,0.53-5.89c0.24-3.68,0.48-7.37,0.71-11.05c0.35-5.4,0.57-10.81,0.83-16.22
			c0.26-5.29,0.49-10.59,0.74-15.88c0.51-11.05,1.05-22.1,1.6-33.14c0.55-10.98,1.36-21.94,2.15-32.9
			c0.39-5.43,0.78-10.86,1.17-16.3c0.4-5.54,0.97-11.06,1.45-16.59c0.47-5.37,1.14-10.72,1.71-16.08c0.57-5.34,1.2-10.67,1.8-16
			c0.63-5.55,1.22-11.11,1.82-16.67c0.55-5.05,1.19-10.09,1.79-15.14c0.71-5.26,1.4-10.53,2.15-15.79
			c0.99-6.94,1.97-13.88,2.83-20.84c0.31-2.49,0.7-4.98,0.91-7.48c0.28-3.36,0.56-6.71,0.84-10.07c0.17-2.06,0.31-4.11,0.39-6.17
			c0.09-2.02,0.17-4.04,0.26-6.06c0.04-0.99,0.12-1.98,0.13-2.97c0.1-11.4,0.09-22.79,0.09-34.19c5.64-0.19,11.27-0.39,16.91-0.59
			c12.25-0.43,24.5-0.6,36.76-0.74c6.09-0.07,12.18-0.16,18.27-0.24c5.88-0.08,11.76-0.4,17.63-0.62c0.77-0.03,1.53-0.12,2.29-0.19
			c2.13-0.19,4.26-0.39,6.39-0.58c1.68-0.15,3.36-0.31,5.04-0.46c1.39-0.13,2.76-0.38,4.14-0.6c2.13-0.34,4.26-0.68,6.39-1.02
			c0.92-0.14,1.84-0.28,2.75-0.47c4.01-0.86,8.02-1.7,12.02-2.63c3.29-0.76,5.19-4.46,4.32-7.61c-0.43-1.55-1.46-2.89-2.84-3.7
			c-1.48-0.86-3.12-1.01-4.77-0.62c-2.46,0.57-4.94,1.11-7.41,1.64c-1.73,0.37-3.47,0.83-5.22,1.11c-3.22,0.52-6.44,1.03-9.66,1.54
			c-3.03,0.28-6.06,0.55-9.09,0.82c-2.13,0.19-4.24,0.38-6.38,0.45c-5.91,0.22-11.81,0.49-17.71,0.57
			c-12.24,0.16-24.48,0.2-36.72,0.52c-6.15,0.16-12.29,0.3-18.43,0.52c-6.13,0.22-12.27,0.44-18.4,0.63
			c-6.27,0.2-12.54,0.41-18.81,0.51c-6.58,0.11-13.16,0.19-19.75,0.23c-12.07,0.08-24.13,0.08-36.2,0.09c-1.52,0-3.03,0-4.55,0
			c-4.41,0-8.82-0.01-13.22,0.03c-3.15,0.02-6.27,0.07-9.42,0.18c-3.17,0.12-6.32,0.29-9.48,0.5c-1.19,0.08-2.39,0.13-3.58,0.26
			c-1.94,0.22-3.89,0.43-5.83,0.65c-1.73,0.19-3.44,0.46-5.16,0.73c-1.39,0.22-2.79,0.41-4.17,0.69c-3.07,0.63-6.12,1.28-9.15,2.06
			c-3.47,0.9-6.93,1.91-10.06,3.71C1197.86,69.97,1196.87,73.86,1198.56,76.75z"/>
		<path class="st0" d="M1748.08,83.94c0.92,0.92,2.54,1.78,3.89,1.61c1.87-0.24,3.74-0.46,5.61-0.67c1.29-0.15,2.59-0.36,3.88-0.43
			c2.59-0.16,5.19-0.41,7.79-0.39c0.85,0,1.71,0,2.57,0c1.91,0,3.82,0,5.71,0.07c3.36,0.13,6.71,0.26,10.06,0.39
			c4.76,0.18,9.51,0.45,14.27,0.56c5.97,0.14,11.94,0.26,17.91,0.32c5.83,0.06,11.66-0.01,17.5-0.07c2.18-0.03,4.35-0.18,6.53-0.31
			c2.74-0.15,5.48-0.25,8.21-0.46c5.47-0.43,10.93-0.87,16.41-1.23c2.72-0.18,5.44-0.43,8.16-0.54c3.04-0.12,6.08-0.24,9.11-0.36
			c0.33,3.66,0.66,7.31,1.03,10.96c0.44,4.43,1.21,8.85,1.88,13.26c1.44,9.4,2.81,18.81,4.14,28.23c1.45,11.06,2.84,22.13,4.18,33.2
			c1.33,10.98,2.35,21.99,3.36,33c0.5,5.41,0.93,10.82,1.38,16.24c0.45,5.34,0.69,10.69,1.01,16.04c0.13,2.19,0.14,4.39,0.2,6.59
			c0.09,3,0.17,5.99,0.25,8.98c0.14,4.91,0.15,9.84,0.16,14.76c0.09,22.73,0.08,45.47,0.08,68.21v31.18v18.34
			c0,2.31,0.03,4.62,0.05,6.93c0.02,2.41-0.03,4.84,0.08,7.26c0.25,5.57,0.44,11.13,0.91,16.68c0.51,6.02,1,12.03,1.46,18.05
			c0.82,10.75,1.45,21.52,2.09,32.29c0.66,11.05,0.87,22.11,0.95,33.18c0.04,5.31,0.19,10.59,0.55,15.89
			c0.36,5.18,0.83,10.34,1.41,15.5c0.45,4.04,0.87,8.09,1.16,12.14c0.14,1.85,0.21,3.71,0.28,5.56c0.03,0.83,0.06,1.66,0.08,2.5
			c0.05,1.47,0.24,2.91,0.44,4.37c0.18,1.32,1.43,2.65,2.53,3.29c0.84,0.5,1.81,0.75,2.78,0.75c0.49,0,0.98-0.06,1.45-0.2
			c1.38-0.38,2.57-1.3,3.29-2.53l0.55-1.31c0.25-0.91,0.26-1.81,0.05-2.72c-0.17-2.31-0.19-4.63-0.3-6.95
			c-0.13-2.69-0.36-5.38-0.59-8.07c-0.45-5.1-1.14-10.18-1.58-15.29c-0.48-5.51-0.81-11.01-1.04-16.54
			c-0.11-2.64-0.07-5.29-0.09-7.93c-0.02-3-0.06-6-0.09-8.99c-0.14-10.66-0.74-21.29-1.41-31.92c-0.68-10.81-1.33-21.62-2.25-32.41
			c-0.47-5.5-1.01-10.99-1.26-16.5c-0.14-3.12-0.28-6.24-0.42-9.36c-0.13-2.86-0.05-5.75-0.07-8.63c-0.09-10.6-0.03-21.2-0.03-31.8
			c0-21.7,0.01-43.41-0.01-65.11c-0.02-11.44-0.03-22.88-0.16-34.32c-0.06-5.72-0.21-11.43-0.37-17.15
			c-0.15-5.58-0.53-11.14-0.86-16.71c-0.32-5.4-0.85-10.79-1.3-16.18c-0.47-5.62-1.03-11.23-1.55-16.84
			c-0.5-5.48-1.17-10.95-1.76-16.42c-0.58-5.32-1.25-10.63-1.89-15.94c-1.28-10.57-2.7-21.12-4.19-31.66
			c-1.42-10.03-2.98-20.04-4.46-30.06c-0.4-4.02-0.77-8.04-1.13-12.06c1.46-0.01,2.93-0.02,4.39-0.03
			c6.03-0.05,12.07-0.07,18.11-0.09c10.54-0.03,21.08-0.02,31.61-0.02c5.78,0,11.57,0.01,17.35,0.06
			c5.36,0.04,10.73,0.32,16.08,0.63c5.35,0.3,10.7,0.72,16.05,1.09c5.44,0.38,10.88,0.6,16.33,0.76c3.81,0.11,7.62,0.16,11.43,0.2
			c3.71,0.04,7.43-0.03,11.13,0.1c3.87,0.13,7.73,0.34,11.6,0.45c3.74,0.11,7.49,0.07,11.22,0.23c0.07,0,0.14,0,0.2,0
			c2.91,0,5.3-2.67,5.3-5.5c0-3.1-2.5-5.37-5.5-5.5c-2.77-0.12-5.54-0.11-8.32-0.16c-2.51-0.05-5.02-0.13-7.54-0.23
			c-2.64-0.1-5.27-0.3-7.91-0.32c-2.85-0.02-5.7-0.03-8.56-0.05c-5.59-0.04-11.18-0.16-16.77-0.32c-5.42-0.16-10.84-0.53-16.25-0.91
			c-5.39-0.38-10.77-0.74-16.16-1.05c-5.35-0.3-10.7-0.4-16.05-0.44c-11.1-0.08-22.21-0.03-33.32-0.02
			c-10.92,0-21.84,0.04-32.76,0.13c-4.94,0.03-9.88,0.14-14.81,0.33c-2.61,0.1-5.23,0.15-7.84,0.32c-3.4,0.23-6.8,0.45-10.2,0.68
			c-4.79,0.32-9.58,0.82-14.38,1.09c-3.58,0.2-7.16,0.4-10.75,0.6c-2.13,0.12-4.25,0.13-6.38,0.15c-6.03,0.07-12.05,0.06-18.08,0
			c-5.36-0.06-10.71-0.21-16.07-0.34c-3.83-0.09-7.65-0.32-11.48-0.48c-3.75-0.16-7.5-0.29-11.25-0.43
			c-1.38-0.05-2.76-0.05-4.14-0.05c-0.69,0-1.38,0-2.07,0c-1.68-0.01-3.32,0.01-5.01,0.11c-1.87,0.11-3.75,0.18-5.62,0.39
			c-2.77,0.32-5.54,0.63-8.31,0.98c-0.49,0.06-0.98,0.13-1.46,0.2c-0.93,0.26-1.74,0.73-2.43,1.41c-1.03,1.03-1.61,2.44-1.61,3.89
			C1746.47,81.51,1747.05,82.92,1748.08,83.94z"/>
	</g>
</g>
</svg>
